<svg width="128" height="128" version="1.1" viewBox="0 0 33.87 33.87" xmlns="http://www.w3.org/2000/svg" xmlns:xlink="http://www.w3.org/1999/xlink"><title>若木 みどり（驚き）</title><defs><linearGradient id="a" x1="17.48" x2="17.56" y1="25.47" y2="28.79" gradientUnits="userSpaceOnUse"><stop stop-color="#d8a398" offset="0"/><stop stop-color="#f4d2c6" offset="1"/></linearGradient><filter id="f" x="-.214" y="-.5015" width="1.428" height="2.003" color-interpolation-filters="sRGB"><feGaussianBlur stdDeviation="0.37807552"/></filter><filter id="e" x="-.2207" y="-.4989" width="1.441" height="1.998" color-interpolation-filters="sRGB"><feGaussianBlur stdDeviation="0.38995629"/></filter><filter id="d" x="-.09412" y="-.06296" width="1.188" height="1.126" color-interpolation-filters="sRGB"><feGaussianBlur stdDeviation="0.0090890409"/></filter><filter id="c" x="-.3357" y="-.5637" width="1.671" height="2.127" color-interpolation-filters="sRGB"><feGaussianBlur stdDeviation="0.18657505"/></filter><filter id="b" x="-.2909" y="-.6146" width="1.582" height="2.229" color-interpolation-filters="sRGB"><feGaussianBlur stdDeviation="0.17424355"/></filter></defs><g><g><path d="m27.09 18.88c1.544 4.69 1.34 11.31-0.6804 12.59-6.385 2.125-12.46 1.432-16.98 6e-3 -2.7-0.7235-3.626-9.508-2.324-13.25" fill="#433030" stroke="#321e1e" stroke-linecap="round" stroke-linejoin="round" stroke-width=".3969"/><path d="m26.32 21.52c2.386 5.266 1.619 8.822 1.34 11.63 2.718-0.487 4.638-6.628-0.1488-15.88" fill="#4c3633"/><path d="m27.75 24.13c1.05 2.256 1.174 4.266 0.6804 6.06 0.01175-2.098 0.1087-3.473-0.6804-6.06z" fill="#69524d"/><path d="m28.94 21.04c0.8905 1.108 1.729 4.882 1.314 7.403-0.08393-2.279-0.504-4.062-1.314-7.403z" fill="#69524d"/></g><path d="m26.32 21.52c2.386 5.266 1.619 8.822 1.34 11.63 2.718-0.487 4.638-6.628-0.1488-15.88" fill="none" stroke="#321e1e" stroke-linecap="round" stroke-linejoin="round" stroke-width=".3969"/><path d="m7.822 19.63c-0.8627 6.494-1.996 10.64 1.914 13.57-5.335-0.7557-5.223-6.977-4.678-11.44" fill="#4c3633"/><path d="m8.454 19.64c1.447 0.2954-1.436 7.2-0.8232 11.18-1.743-4.1-1.17-12.06 0.8232-11.18z" fill="#69524d"/><path d="m9.045 19.57c-0.8627 6.494-3.218 10.69 0.6914 13.62-5.335-0.7557-5.223-6.977-4.678-11.44" fill="none" stroke="#321e1e" stroke-linecap="round" stroke-linejoin="round" stroke-width=".3969"/><g><a transform="translate(-.2977 -.6379)" fill="#67504b"><path d="m7.518 10.3c-1.784 10.89-8.858 22.14-0.9313 23.03-2.638-3.182-0.6993-11.85 2.939-17.87" fill="#67504b"/></a><path d="m27.85 18.91c3.025 4.523 4.13 5.824 3.24 12.88 0.2745-5.365-1.904-8.065-3.516-11.69" fill="#4c3633"/><path d="m29.16 13.57c0.432 6.543 7.117 13.94 1.938 18.22 0.314-6.606-0.1093-7.476-3.24-12.88" fill="#67504b"/><path d="m7.204 19.52c-1.41 4.285-3.466 9.896-1.17 13.15-3.726-2.968-0.5337-10.21 0.7634-13.75z" fill="#4c3633"/><a transform="translate(-.2977 -.6379)" fill="#4c3633"><path d="m7.518 10.3c-2.291 8.336-9.029 21.84-0.9313 23.03-6.408-2.33-0.2363-15.07 1.98-20.52" fill="#4c3633"/></a></g><a transform="translate(8.675 4.508)"><path d="m-1.455 5.152c-1.784 10.89-8.858 22.14-0.9313 23.03-3.346-3.478 0.3591-10.44 1.044-14.86" fill="none" stroke="#321e1e" stroke-linecap="round" stroke-linejoin="round" stroke-width=".3969"/></a><path d="m29.16 13.57c1.046 9.83 7.164 13.28 1.938 18.22 0.1044-4.833-1.516-7.725-3.384-11.58" fill="none" stroke="#321e1e" stroke-linecap="round" stroke-linejoin="round" stroke-width=".3969"/></g><g><path transform="scale(.2646)" d="m85.1 98.29c-16.4 4.258-1.655 9.377 1.465 29.74h14.66c-2.522-8.629-9.612-30.69-16.12-29.74z" fill="#a5a178"/><path d="m26.03 31.47c-3.4e-5 1.093-0.532 1.803-0.8094 2.433l1.561-0.02619z" fill="#7c795b"/><path d="m26.78 33.87c-1.205-3.967-1.453-4.731-3.563-7.635-0.8027-0.7714-3.158 0.5023-2.615 1.786 1.136 1.77 1.799 3.064 2.33 5.849" fill="none" stroke="#321e1e" stroke-linecap="round" stroke-linejoin="round" stroke-width=".3969"/><path d="m23.2 27.2c0.2925 2.091-0.2231 2.818-0.7867 3.312 0.342-0.7377 0.7273-2.108 0.7867-3.312z" fill="#7d7a5c"/><path d="m24.26 29.73c0.1027 1.71-0.4431 2.678-1.374 4.03" fill="none" stroke="#321e1e" stroke-linecap="round" stroke-linejoin="round" stroke-width=".2646"/><path d="m23.32 27.23c0.1665 1.348 0.1878 2.686-1.126 3.527" fill="none" stroke="#321e1e" stroke-linecap="round" stroke-linejoin="round" stroke-width=".2646"/><g><path d="m11.77 25.75c-1.325 0.05603-2.735 6.291-3.534 8.113l4.561 0.03394c-0.2057-1.811 1.828-8.061-1.028-8.147z" fill="#a5a179"/><path d="m10.66 30.96c-0.0038 0.6146 0.3291 2.11 0.8587 2.934l1.282-0.0034 0.1528-3.144c-0.7116 1.953-2.104 0.6573-2.293 0.2129z" fill="#7c795b"/><path d="m10.31 27.93-1.592 5.299c0.6486-0.6352 1.55-2.387 1.592-5.299z" fill="#7c795b"/></g><g fill="none" stroke="#321e1e" stroke-linecap="round" stroke-linejoin="round"><path d="m10.66 30.96c-4e-3 1.478 0.1047 1.737 0.8587 2.934" stroke-width=".2646"/><path d="m11.64 27.16c0.8079 1.238 0.5544 2.389 1.308 3.587" stroke-width=".2646"/><path d="m12.8 33.89c0.1528-3.144 1.622-8.316-1.028-8.147-1.662 0.04382-2.386 5.838-3.501 8.175" stroke-width=".3969"/></g><rect x="27.24" y="33.84" width=".02255" height=".04511" fill="#69524d" opacity=".25" stroke-width="0"/></g><g stroke="#321e1e" stroke-linecap="round" stroke-linejoin="round"><path transform="scale(.2646)" d="m51.31 100.4c-9.332 9.399-8.804 19.64-3.996 29.27h38.98c4.203-9.325 3.766-22.47-5.668-29.14z" fill="#a5a179" stroke-width="1.5"/><ellipse cx="17.58" cy="24.67" rx="5.159" ry="1.687" fill="#7c795b" stroke-dashoffset="4" stroke-width=".3969"/><g fill="#fff" stroke-width=".2646"><path d="m16.47 26.91c-0.1752 1.98-1.176 2.063-0.9835 5.291 0.02723 0.1498-0.4148 0.3425-0.4661-0.06014-0.1317-3.873 0.8797-3.613 1.002-5.424 0.02594-0.2982 0.5276-0.284 0.4474 0.1936z"/><path d="m19.56 27.01c0.414 2.291 1.001 2.328 0.7906 5.2 0.02208 0.359-0.3621 0.1622-0.3593-0.1662-0.138-2.729-0.3262-2.414-0.9539-5.077-0.01473-0.342 0.4854-0.4983 0.5226 0.04329z"/><path d="m14.88 31.8c0.1169-0.2044 0.6504-0.2472 0.7691 0.0011 0.07964 0.1395 0.07882 0.6363-0.08505 0.8892-0.2292 0.2473-0.3992 0.2344-0.5954-0.01739-0.1696-0.2423-0.168-0.6953-0.0887-0.8729z"/><path d="m19.82 31.87c0.0793-0.1893 0.6204-0.2247 0.7691 0.0011 0.108 0.1581 0.07031 0.7135-0.08505 0.8892-0.1698 0.1571-0.4455 0.2344-0.5954-0.01739-0.1696-0.355-0.1905-0.6727-0.0887-0.8729z"/></g></g><g><path d="m14.69 24.66c-0.8392 0.6697 1.212 2.725 3.189 2.913 1.29-0.0041 2.786-2.054 2.609-2.685-2.06-1.749-4.729-0.7208-5.798-0.2277z" fill="url(#a)"/><path d="m19.04 24.2c0.4607 0.05011 1.051 0.4561 1.338 0.7123" fill="none" stroke="#321e1e" stroke-linecap="round" stroke-linejoin="round" stroke-width=".3969"/><path d="m14.69 24.66c0.19-0.1894 0.95-0.5446 1.333-0.5593" fill="none" stroke="#321e1e" stroke-linecap="round" stroke-linejoin="round" stroke-width=".3969"/><g><path d="m19.67 24.98c-0.3474-0.4839-0.3315-1.46-0.3988-2.09l-3.253-0.2552c-0.03149 0.6541 0.1549 1.525-0.1701 1.999" fill="#d8a398" stroke="#321e1e" stroke-linecap="round" stroke-linejoin="round" stroke-width=".3969"/><path d="m18.05 27.64c-2.154-0.1491-4.004-0.3903-6.401-0.8183-0.3237 0.06548-0.4603 0.2712-0.6315 0.4511-0.1128-1.9 0.4499-2.869 2.255-2.225-0.5661-0.5719 0.305-1.086 0.6164-1.188 1.153 0.6011 4.617 2.745 4.161 3.78z" fill="#7c795b"/><path d="m20.88 23.58c0.8659 0.1216 2.069 0.3691 1.759 0.9773 1.188 0.8042 1.437 1.381 1.052 2.345l-0.3759-0.5413c-0.3221 0.8203-2.439 0.4374-5.266 1.284-0.07224-1.426 2.084-2.6 2.831-4.066z" fill="#7c795b"/><path d="m18.05 27.64c-0.2335-0.9177-2.236-2.472-2.236-2.472-1.643-1.625-3.436 0.4476-0.842 1.022-1.869-0.3361-1.239 0.2401-1.398 0.3759-0.2103 0.1288-0.8693-0.1594-0.957 0.3142 1.889 0.2843 5.433 0.7597 5.433 0.7597z" fill="#a5a179"/><path d="m18.05 27.64c0.3411-2.091 4.078-2.611 3.011-1.781 0.8541-0.3109 1.693 0.0166 2.255 0.4962z" fill="#a6a279"/></g><g fill="none" stroke="#321e1e" stroke-linecap="round" stroke-linejoin="round" stroke-width=".3969"><path d="m20.61 24.09c-0.5922 1.25-1.909 1.955-2.557 3.087-0.9938-1.334-2.418-2.2-3.783-2.968"/><path d="m21.15 23.97c2.715 1.208-1.773 2.82-2.836 3.537 2.116-0.2779 3.744-0.53 5.001-1.147 0.1877 0.1445 0.3303 0.3371 0.3759 0.5413 4.44e-4 0.0026 0.0024 0.0031 0.0056 0.0016 0.8136-1.066-0.1953-1.931-1.058-2.347-0.1631-0.9188-0.9815-0.9914-1.759-0.9773"/><path d="m13.89 23.86c-0.7265 0.312-0.9487 0.479-0.6164 1.188-2.035-1.22-2.244 1.141-2.255 2.225 0.1174-0.2958 0.4933-0.4617 0.4933-0.4617 0.9089 0.08436 3.329 0.4163 6.241 0.6495-1.012-0.8022-2.35-1.14-3.687-1.447"/></g></g><g><path d="m6.207 16.21c-0.755 0.7551-0.7268 2.401-0.2384 3.365 0.6232 1.11 3.24 2.152 3.089 0.2844-0.02743-1.185-1.392-4.88-2.85-3.649z" fill="#f4d2c6" stroke="#321e1e" stroke-linecap="round" stroke-linejoin="round" stroke-width=".3969"/><path d="m7.095 17.06c-1.83 0.6768 0.2064 3.235 0.9086 2.697 0.5213-0.4029-0.3963-2.959-0.9086-2.697z" fill="#d8a398"/><path d="m7.261 18.17c0.491-0.6871-0.4041-1.517-0.7266-0.7631" fill="none" stroke="#321e1e" stroke-linecap="round" stroke-linejoin="round" stroke-width=".2646"/><g><path d="m27.41 13.14c0.9526 5.484 1.682 10.7-0.2126 13.57 0.2557-1.086 0.3583-2.128 0.5528-3.189-0.4913 1.616-0.8748 3.487-2.381 3.827 0.3667-0.8434 0.752-1.445 1.021-3.402-0.5927 1.271-1.142 1.705-1.616 1.999 0.4354-2.103 0.8899-4.056 0.893-6.039" fill="#4c3633"/><path d="m10.18 16.67c0.07257 3.218 0.3566 5.905 2.075 8.36-1.134-0.5617-1.64-1.018-2.165-2.406 0.3483 1.653 1.25 3.118 2.075 4.18-1.088-0.2487-1.816-1.27-2.917-2.797 0.4376 0.9403 0.7207 1.769 1.293 2.526-2.411-1.189-2.969-7.668-3.368-11.31" fill="#4c3633"/><path d="m9.045 19.57c0.2762 2.188 4.159 9.72 0.2019 4.44 0.4376 0.9403 0.7207 1.769 1.293 2.526-2.411-1.189-2.391-5.144-2.789-8.783" fill="#67504b"/></g><path d="m10.18 16.67c0.07257 3.218 0.3566 5.905 2.075 8.36-1.134-0.5617-1.64-1.018-2.165-2.406 0.3483 1.653 1.25 3.118 2.075 4.18-1.088-0.2487-1.816-1.27-2.917-2.797 0.4376 0.9403 0.7207 1.769 1.293 2.526-2.411-1.189-2.969-7.668-3.368-11.31" fill="none" stroke="#321e1e" stroke-linecap="round" stroke-linejoin="round" stroke-width=".3969"/><path d="m26.78 20.84c0.4665-0.05267 1.166-0.4967 1.469-1.117 0.1874 1.376 0.0024 5.065-1.055 6.986l0.5528-3.189c-0.5434 2.493-1.395 3.544-2.381 3.827 0.6309-2.102 1.556-4.509 1.414-6.506z" fill="#67504b"/><path d="m27.41 13.14c0.9526 5.484 1.682 10.7-0.2126 13.57 0.2557-1.086 0.3583-2.128 0.5528-3.189-0.4913 1.616-0.8748 3.487-2.381 3.827 0.3667-0.8434 0.752-1.445 1.021-3.402-0.5927 1.271-1.142 1.705-1.616 1.999 0.4354-2.103 0.8899-4.056 0.893-6.039" fill="none" stroke="#321e1e" stroke-linecap="round" stroke-linejoin="round" stroke-width=".3969"/><path d="m27.84 10.43c0.2992 6.076-1.464 3.684-1.858 10.55-0.2357 2.641-17.19 6.561-19.09-7.013-0.8317-8.311 4.005-12.22 10.84-12.16 5.597 0.1081 9.818 1.47 10.11 8.633z" fill="#f4d2c6" stroke="#331f1f" stroke-linecap="round" stroke-linejoin="round" stroke-width=".3969"/><g fill="#ff96a0"><path d="m15.63 19.6a2.12 1.113 0 0 1-0.3667 1.484 2.12 1.113 0 0 1-2.851-0.05068 2.12 1.113 0 0 1-0.1745-1.494" filter="url(#f)" opacity=".5"/><path transform="rotate(-4.705)" d="m23.08 21.17a2.12 1.113 0 0 1 0.06284 1.49 2.12 1.113 0 0 1-2.818 0.1856 2.12 1.113 0 0 1-0.6407-1.452" filter="url(#e)" opacity=".5" style="mix-blend-mode:normal"/><path d="m19.51 21.89c-0.04003 0.5964-2.427 0.5741-2.445-0.06379 0.01566-0.5069 2.433-1.514 2.445 0.06379z" style="paint-order:normal"/></g><path d="m19.51 21.89c-0.04003 0.5964-2.427 0.5741-2.445-0.06379 0.01566-0.5069 2.433-1.514 2.445 0.06379z" fill="none" stroke="#331f1f" stroke-linecap="round" stroke-linejoin="round" stroke-width=".2646" style="paint-order:normal"/><path d="m18.09 21.14c0.2789-0.03108 0.7471-0.1972 1.132 0.03458 0.3181 0.2941 0.2899 0.4996 0.288 0.7104-0.3808-0.4525-0.7225-0.6377-1.42-0.745z" fill="#331f1f" opacity=".5"/></g><g><ellipse transform="matrix(.9156 -.402 .3164 .9486 0 0)" cx="12.47" cy="25.12" rx=".1159" ry=".1732" fill="#321e1e" filter="url(#d)" opacity=".25" style="mix-blend-mode:normal"/></g><g><g><g stroke="#321e1e" stroke-linecap="round" stroke-linejoin="round"><path d="m21.59 11.57c1.206-0.6696 2.063-0.173 3.458 1.084-1.996-0.9703-1.864-1.08-3.458-1.084z" fill="#321e1e" stroke-width=".3704"/><path d="m12.19 12.29c1.715-1.117 2.13-1.717 3.627-0.8445-1.575-0.1366-2.429 0.3182-3.627 0.8445z" fill="#321e1e" stroke-width=".3704"/><path transform="translate(-.002869 .01036)" d="m18.13 0.2158c-5.376-0.1609-9.529 0.8935-11.74 6.045-2.904 6.158-2.294 9.907-5.802 20.92-1.035 2.826 0.232 4.719 2.132 5.312-0.5297-6.615 2.108-13.45 6.804-22.84 3.005-3.959 15.05-2.223 16.76 5.443 0.5103-1.177 0.1701-1.758 0.3827-3.572 0.5381 2.942 0.9926 4.013-1.429 8.876 1.653-0.549 3.217-1.166 4.491-4.028-0.09705 2.118-0.06394 3.003-0.7893 4.667 3.524-1.575 2.747-10.65-1.55-15.89 2.448 2.163 5.012 4.985 6.081 9.271 0.9104-3.139-2.651-8.629-5.869-10.21 2.057 0.6307 4.435 0.5114 4.465-3.062-1.104 1.653-1.863 2.151-3.394 2.374-2.907-0.07179-2.964-3.105-10.54-3.307z" fill="#69524d" stroke-width=".3969"/></g><path d="m20.11 9.186c0.7251 0.4223 3.872 1.99 5.826 3.912-0.5466-3.026-5.613-6.039-5.613-6.039z" fill="#dba89d"/><path d="m16.33 7.102s-3.158 2.475-3.891 4.465c1.299-0.842 2.767-1.53 4.04-1.935z" fill="#dba89d"/></g><g fill="#69524d" stroke="#321e1e" stroke-linecap="round" stroke-linejoin="round" stroke-width=".3969"><path d="m17.61 5.264c-1.386 4.583-5.381 6.954-9.397 8.222 0.4513-5.08 2.65-7.858 4.932-9.361"/><path d="m19.41 6.769c2.882 1.929 5.58 3.855 6.866 8.327 0.927-1.595 1.228-5.428 0.4429-7.341"/><path d="m20.58 4.231c1.608 1.873 2.497 4.497-0.1083 9.896 0.2148-1.005 0.145-1.401 0.02325-2.071 0.06276 0.9103-0.3935 1.443-0.6786 2.299-1.185 0.1117-1.708 0.1864-2.46-0.173 0.1105-1.751 0.03474-3.102-0.09295-4.847 0.1226 1.612-0.5742 3.423-0.5581 4.694-0.8154-3.003-1.194-7.428-0.6326-8.861"/></g><path d="m19.36 2.001c1.697-0.4747 3.945 0.3395 5.579 2.263" fill="none" stroke="#321e1e" stroke-linecap="round" stroke-linejoin="round" stroke-width=".3969"/></g><g fill="#fff"><path d="m21.26 18.89c4.935 2.208 6.211-5.98 0.3721-3.487-1.076 0.6114-1.298 2.529-0.3721 3.487z"/><path d="m10.67 16.74c0.1394 2.443 4.308 2.845 5.082 2.052 3.246-4.608-5.052-5.08-5.082-2.052z"/></g><g><g fill="#321e1e" stroke="#321e1e" stroke-linecap="round" stroke-linejoin="round"><path d="m20.92 16.13c3.15-2.946 6.107-0.4062 4.465 1.816 0.834-3.606-2.867-3.32-4.465-1.816z" stroke-width=".3969"/><path d="m16.28 16.16c-2.35-2.702-6.341-0.9219-4.902 1.937-2.516-3.582 3.457-4.985 4.902-1.937z" stroke-width=".3969"/><g stroke-width=".1323"><path d="m25.11 14.07c0.2619 0.6464 0.3536 1.227-0.01504 1.173-0.498-0.278 0.1406-0.2393 0.01504-1.173z"/><path d="m11.27 14.16c0.8185 0.8007 1.945 0.3975 1.306 0.7495-0.5281 0.3686-0.9907-0.1921-1.306-0.7495z"/><path d="m10.4 15.34c0.5088 0.3741 1.372-0.228 0.9138 0.4747-0.4324 0.6981-0.6732-0.02368-0.9138-0.4747z"/><path d="m26.7 15.53c-0.816 1.135-0.8855 0.7972-0.9665 0.2512-0.3245-0.8517 0.2209 0.6865 0.9665-0.2512z"/></g></g><g fill="none" stroke-linecap="round" stroke-linejoin="round" stroke-width=".2646px"><path d="m14.44 14.04c0.7237-0.02834 1.374 0.1837 1.892 0.893" filter="url(#b)" opacity=".25" stroke="#ff96a0" style="mix-blend-mode:normal"/><path d="m14.44 14.04c0.7237-0.02834 1.374 0.1837 1.892 0.893" stroke="#321e1e"/><path d="m20.85 15.12c0.6081-0.6146 1.052-0.8658 1.728-1.029" filter="url(#c)" opacity=".25" stroke="#ff96a0" style="mix-blend-mode:normal"/><path d="m20.87 15.13c0.3859-0.4794 1.108-1.027 1.738-1.034" stroke="#321e1e"/></g><g><path d="m14.63 4.465c-2.97 5.34-7.155 11.32-3.423 15.81-2.846-1.876-2.636-2.631-3.296-3.984-0.1113 0.9444 0.335 1.756 0.9781 2.828-4.041-1.734-3.285-11.36 2.877-15.89" fill="#69524d" stroke="#321e1e" stroke-linecap="round" stroke-linejoin="round" stroke-width=".3969"/><path d="m24.24 17.35c-0.08103 1.836-3.189 3.033-3.189-0.6379 0.03188-1.14 3.083-2.756 3.189 0.6379z" fill="#b4b358"/><path d="m24.19 17.6c-1.072-0.1369-2.29-1.388-2.946-1.434 0.2093-1.033 3.579-1.069 2.946 1.434z" fill="#88874d"/><path d="m24.18 16.53c-0.691-0.1273-1.712-1.08-2.61-0.7227 0.03023-0.8899 2.558-0.513 2.61 0.7227z" fill="#696741"/><path d="m15.63 17.42c-0.06157 1.512-3.095 3.165-3.211-0.8293 0.04401-1.866 3.323-2.494 3.211 0.8293z" fill="#b4b358"/><path d="m15.71 17.47c-1.183-0.03051-2.54-1.661-3.229-1.533 0.08055-1.373 3.78-1.818 3.229 1.533z" fill="#88874d"/><path d="m15.72 16.55c-0.9858-0.1011-1.911-1.379-2.853-1.053 0.1347-1.118 2.959-0.4692 2.853 1.053z" fill="#696741"/><ellipse cx="22.6" cy="17.01" rx=".5143" ry=".7632" fill="#585541"/><ellipse cx="14.01" cy="16.87" rx=".5143" ry=".7632" fill="#585541"/></g><g stroke="#321e1e" stroke-linecap="round" stroke-linejoin="round"><path d="m22.53 15.24c2.371-0.03133 2.377 3.684-0.1393 3.784-1.987-0.143-1.621-3.698 0.1393-3.784z" fill="none" stroke-width=".3969"/><ellipse cx="22.48" cy="16.7" rx=".2339" ry=".2454" fill="#fff" stroke-dashoffset="10" stroke-width=".1323"/><ellipse cx="13.86" cy="16.56" rx=".2339" ry=".2454" fill="#fff" stroke-dashoffset="10" stroke-width=".1323"/><path d="m13.93 15.02c2.784 0.3145 2.106 4.011-0.0084 3.988-1.924-0.1161-2.194-4.231 0.0084-3.988z" fill="none" stroke-width=".3969"/></g></g><g fill="#937263" stroke-width="0"><path d="m18.3 7.828c-0.01907 0.9114-1.687 0.8214-1.632-0.04606 0.07635-1.309 1.65-0.8224 1.632 0.04606z"/><path d="m18.79 7.168c0.2224 0.7341 0.1219 1.599-0.2291 1.109-0.3813-1.332 0.1371-1.318 0.2291-1.109z"/><path d="m19.58 7.217c0.2738 1.004-0.3653 1.274-0.4847 1.011-0.08621-0.3694-0.11-1.489 0.4847-1.011z"/><path d="m20.38 6.943c0.7912 1.258-0.2198 1.689-0.3644 1.432-0.4652-1.095 0.1658-1.86 0.3644-1.432z"/><path d="m23.34 6.251c1.449 0.9919 0.2627 0.8209 0.1882 0.759-0.682-0.4656-0.6324-0.9744-0.1882-0.759z"/><path d="m23.94 5.409c1.033 0.5048 1.041 2.422 0.549 1.601-0.5883-0.6459-1.408-1.929-0.549-1.601z"/><path d="m24.56 5.214c1.684 1.163 1.02 1.82 0.7445 1.541-0.1307-0.3021-1.572-1.712-0.7445-1.541z"/><path d="m24.82 4.973c0.4223-0.389 1.989 1.144 1.662 1.436-0.3703 0.2141-2.04-1.08-1.662-1.436z"/><path d="m25.46 3.906c0.2296-0.3653 2.322 1.765 0.8798 1.571-0.7569-0.3498-0.9796-1.396-0.8798-1.571z"/><path d="m25.61 4.687c0.3814 0.1944 1.791 1.149 1.12 1.481-0.8232-0.4186-1.806-1.676-1.12-1.481z"/><path d="m14.22 7.209c-0.02088 0.6686-0.5538 0.8557-0.6769 0.7181-0.2805-0.3862 0.7224-1.452 0.6769-0.7181z"/><path d="m11.96 6.711c0.1034-0.1135 0.5156-0.2686 0.5202 0.00597 9e-3 0.5299-0.6287 1.458-0.8013 0.8016-0.1016-0.5144 0.2812-0.7697 0.2812-0.8075z"/><path d="m11.32 6.546c-0.1354 0.3853-0.491 1.281-0.8324 0.6062 0.1812-1.503 0.9612-0.8742 0.8324-0.6062z"/><path d="m9.995 6.025c-0.2244 0.3009-0.5629 1.193-0.6908 0.3455 0.313-0.7692 0.9194-0.625 0.6908-0.3455z"/></g></svg>
