<?xml version="1.0" encoding="UTF-8"?>
<svg width="128" height="128" version="1.1" viewBox="0 0 33.867 33.867" xmlns="http://www.w3.org/2000/svg" xmlns:xlink="http://www.w3.org/1999/xlink"><title>若木 しげる(笑顔)</title><defs><linearGradient id="a" x1="17.477" x2="17.559" y1="25.473" y2="28.79" gradientUnits="userSpaceOnUse"><stop stop-color="#d8a398" offset="0"/><stop stop-color="#f4d2c6" offset="1"/></linearGradient><filter id="f" x="-.21401" y="-.50151" width="1.428" height="2.003" color-interpolation-filters="sRGB"><feGaussianBlur stdDeviation="0.37807552"/></filter><filter id="e" x="-.22073" y="-.49888" width="1.4415" height="1.9978" color-interpolation-filters="sRGB"><feGaussianBlur stdDeviation="0.38995629"/></filter><filter id="d" x="-.094124" y="-.062959" width="1.1882" height="1.1259" color-interpolation-filters="sRGB"><feGaussianBlur stdDeviation="0.0090890409"/></filter><filter id="c" x="-.30926" y="-.71975" width="1.6185" height="2.4406" color-interpolation-filters="sRGB"><feGaussianBlur stdDeviation="0.18657505"/></filter><filter id="b" x="-.34025" y="-.55183" width="1.6805" height="2.1037" color-interpolation-filters="sRGB"><feGaussianBlur stdDeviation="0.17424355"/></filter></defs><g><g fill="#444965"><path d="m4.7677 14.364c0.011602 3.2476 2.5747 4.667 4.2101 9.3837 0.081236 0.23428 1.0656-1.075 1.0656-1.075l0.87716 1.7793 1.1075-1.2981 0.57601 1.5815 1.2282-1.1003 1.1427 1.4434 1.3231-1.8644 1.0825 2.2853 0.90211-1.9846 1.3231 1.9245 0.84197-1.6238 0.78183 1.144 0.72169-1.3244 0.90211 1.263 1.1427-1.8042 1.3748 1.2803c0.12038-5.8785 1.7416-2.968 2.6983-9.3801 0.3683-5.4981-22.957-5.7087-23.301-0.62987z" stroke="#232533" stroke-linecap="round" stroke-linejoin="round" stroke-width=".39688"/><path transform="scale(.26458)" d="m85.122 98.219c-3.7473 0.07659-2.482 2.6707-0.87887 6.4615 1.8392 8.6146 1.9703 19.102 3.6137 23.693l11.62-0.36778c-3.3843-11.742-8.6459-23.849-11.697-28.904-0.66367-0.63777-1.609-0.90426-2.6582-0.88281z"/><path d="m11.713 25.742c-0.31458 6.5e-5 -0.61438 0.14187-0.80749 0.43515-0.54783 0.83858-2.0197 4.9687-2.801 7.6941l4.4738-0.0062c0.08799-2.1487 0.26176-4.3926 0.46283-6.4233 0.0218-1.1056-0.68393-1.6999-1.3281-1.6997z"/></g><rect x="27.244" y="33.837" width=".022553" height=".045105" fill="#69524d" opacity=".25" stroke-width="0"/><g fill="#2c2e40"><path d="m23.87 32.879c-0.0085 0.5343-0.25515 0.59213-0.38757 0.8785 0.11196-0.71357 0.22393-1.3031 0.3359-2.1446 0.27956-3.7023 0.42144-1.1605 0.05168 1.2661z"/><path d="m23.341 30.086c-0.27342 0.47035-0.40131 0.72916-0.53374 1.0155 0.11196-0.71357 0.27874-1.5955 0.39071-2.4369 0.12426-0.60545 0.22046-0.71287 0.3166-1.5202 0.02851 0.85012 0.01671 1.502-0.17357 2.9415z"/><path d="m12.143 33.679c-0.20034-0.31527-0.39234-0.58089-0.80088-1.2659-0.26934-0.50498-0.4718-0.87236-0.80352-1.6501 0.27956 1.2328 0.38597 1.3372 0.65693 1.8282 0.37498 0.53236 0.59817 0.79901 0.94746 1.0878z"/><path d="m12.424 31.982c-0.20034-0.31527-0.61615-1.4168-1.0201-2.2708-0.34242-0.77904-0.38045-2.0234-0.71217-2.8012 0.11807 1.2587 0.2124 1.7346 0.49706 2.8057 0.17858 0.43644 0.88593 1.9775 1.2352 2.2663z"/></g><path d="m26.32 33.868c-0.97448-2.0661-1.7755-6.5507-3.1009-7.6297-1.0951-0.54923-1.5174 0.15323-1.2199 1.4758 0.50453 1.7171 0.47971 3.326 1.2462 6.2511" fill="none" stroke="#232533" stroke-linecap="round" stroke-linejoin="round" stroke-width=".39688"/><path d="m12.771 33.861c0.03421-2.7435-0.13887-5.115 0.53433-6.4151 0.03747-1.6435 0.20254-3.461-2.4656-1.2631-1.0975 1.0267-2.0341 6.0389-2.7356 7.6884" fill="none" stroke="#232533" stroke-linecap="round" stroke-linejoin="round" stroke-width=".39688"/><g><g stroke="#232533"><path transform="scale(.26458)" d="m40.97 98.958s3.6898 3.0331 5.1836 8.0205c0.85342 7.0883-0.33862 12.517-1.3583 21.542l43.061-0.14819c-2.238-17.913-2.1749-25.198-0.099417-29.204-4.0743-2.7402-7.6171-4.915-12.74-5.6185l-6.6814 6.2762-15.258-6.3975c-4.8408 0.50188-8.5325 2.9188-12.108 5.5295z" fill="#444965" stroke-linecap="round" stroke-linejoin="round" stroke-width="1.5"/><path d="m17.203 26.288c0.34318 0.15288 1.0844 0.23244 1.6149-0.01844 0.09641 2.102-0.0502 4.5668-0.05629 7.8539-1.2672 0.06674-1.2976 0.02031-1.7151-0.06744 0.28328-1.8568-0.0079-4.8956 0.15648-7.768z" fill="#444965" stroke-width=".26458px"/><circle cx="18.015" cy="28.684" r=".25579" fill="#8c8bac" stroke-dashoffset="4" stroke-linecap="round" stroke-linejoin="round" stroke-width=".26458"/><circle cx="17.99" cy="31.644" r=".25579" fill="#8c8bac" stroke-dashoffset="4" stroke-linecap="round" stroke-linejoin="round" stroke-width=".26458"/></g><path d="m15.905 22.602c-0.0051 1.1932-0.03141 2.0739-1.212 2.0625-0.83925 0.66965 1.3376 1.4862 3.3148 1.6744 1.2899-0.0041 2.6606-0.81516 2.4834-1.4467 0.06696-0.5341-1.392 0.46658-1.4181-1.95z" fill="url(#a)"/></g><g fill="none" stroke="#232533" stroke-linecap="round" stroke-linejoin="round" stroke-width=".39688"><path d="m19.557 24.947c-0.3474-0.48388-0.33146-1.4603-0.39883-2.0895l-3.2532-0.25515c-0.03149 0.6541 0.15485 1.5249-0.1701 1.9987"/><path d="m19.335 24.313c0.39456-0.08218 0.88573 0.4065 1.1556 0.58001"/><path d="m14.693 24.665c0.23496-0.12196 0.72863-0.41361 1.0688-0.49314"/></g><path d="m13.459 25.036c0.09458 1.436 0.58454 2.1857 1.425 3.074 1.0946-0.53344 2.8044-1.9134 3.1235-1.7707-1.6479-0.83853-2.218-1.2703-2.9494-2.0763-0.71226 0.21424-0.99919 0.26616-1.5991 0.77301z" fill="#444965" stroke="#232533" stroke-linecap="round" stroke-linejoin="round" stroke-width=".39688"/><path d="m18.007 26.339c0.80288 0.8356 1.7034 1.1259 2.7194 1.8241 0.35598-0.7246 0.43679-2.5535 0.47686-3.2255-0.65752-0.22472-0.93425-0.10745-1.9415-0.66191 0.49636 1.1637-0.49438 1.3177-1.2547 2.0633z" fill="#444965" stroke="#232533" stroke-linecap="round" stroke-linejoin="round" stroke-width=".39688"/></g><g><path d="m6.2069 16.211c-0.37368 0.45794-0.47946 1.0622-0.55582 1.6314-0.050636 0.59146 0.040534 1.2041 0.31747 1.7334 0.55484 0.72733 1.3563 1.3439 2.2944 1.4236 0.53268-0.05759 1.1846-0.87481 1.2334-1.5526 0.11644-1.3229-2.0625-4.272-3.2895-3.2358z" fill="#f4d2c6" stroke="#232533" stroke-linecap="round" stroke-linejoin="round" stroke-width=".39688"/><path d="m7.7503 17.755c-0.15529-0.27906-0.33932-0.57851-0.65544-0.69257-0.21228-0.08066-0.49584-0.0014-0.5747 0.22823-0.12942 0.31169-0.043081 0.6538-0.023271 0.97741 0.060276 0.505 0.42543 0.9038 0.79564 1.2215 0.16646 0.15543 0.35969 0.27618 0.57158 0.35922 0.23507 0.11061 0.45377-0.20104 0.37324-0.41662-0.031064-0.37624-0.031766-0.76661-0.19623-1.1154-0.080802-0.1951-0.18321-0.38035-0.29081-0.56174z" fill="#d8a398"/><path d="m7.2613 18.169c0.14737-0.08207 0.29535-0.22304 0.28973-0.40454 0.00223-0.24721-0.089994-0.51142-0.30331-0.65285-0.1802-0.12368-0.45572-0.13596-0.61467 0.02963-0.064946 0.07184-0.092796 0.16978-0.098348 0.2647" fill="none" stroke="#232533" stroke-linecap="round" stroke-linejoin="round" stroke-width=".26458"/><g><path d="m24.168 16.973c0.14314-2.0418 3.7992-1.4174 3.3234 0.99131-0.84736 2.4171-2.9064 3.7861-3.1668 2.77-0.2899-1.1818-0.21946-2.6038-0.15662-3.7613z" fill="#d8a398" stroke="#232533" stroke-linecap="round" stroke-linejoin="round" stroke-width=".39688"/><path d="m27.836 10.431c0.29916 6.0763-2.2026 7.4246-1.8584 10.545-0.23569 2.6407-15.191 4.9709-17.007-1.4226-1.0604-3.4507-2.4179-4.5549-2.3291-7.1991 0.26866-5.4583 3.3635-10.484 11.086-10.556 5.5972 0.10806 9.8184 1.4696 10.109 8.6328z" fill="#f4d2c6" stroke="#232533" stroke-linecap="round" stroke-linejoin="round" stroke-width=".39688"/><path d="m19.307 10.66c0.7251 0.42229 3.5435 1.478 5.4972 3.4008-0.5081-2.0115-3.14-6.2323-5.5403-7.1714z" fill="#dba89d"/><path d="m14.285 6.741c-1.592 0.58848-2.7204 3.3171-3.6719 4.9037 2.4685-1.6459 3.2966-2.0639 5.6843-1.0214 0.03434-0.87209-1.1888-3.2217-2.0124-3.8823z" fill="#dba89d"/><path d="m20.919 0.6705c5.7723 0.74909 10.452 7.7118 6.418 14.832-2.5323-1.4423-3.891-3.6603-5.3743-6.1495-0.15722 0.60289-0.23584 1.2058-0.51677 1.8087-1.4503-0.82136-4.4784-2.0794-6.0109-1.3853-1.3706 0.62078-1.6087-0.97241-2.154-1.7669-2.7084 4.7802-3.6712 6.093-8.2166 8.1132-2.5397-8.7076 5.2807-16.463 7.9866-14.097-0.27758-1.0025 0.51676-1.6372 1.8642-1.7916-0.70434 0.60306-1.2914 1.1889-1.2914 1.7389 0.65064-1.5909 4.8607-1.7223 7.2952-1.3026z" fill="#444965" stroke="#232533" stroke-linecap="round" stroke-linejoin="round" stroke-width=".39688"/></g></g><g fill="#444965" stroke="#232533" stroke-linecap="round" stroke-linejoin="round" stroke-width=".39688"><path d="m14.609 5.3753c-0.84515 6.3626 1.298 7.7343 3.8345 9.3606-0.61197-0.75163-0.76774-1.623-0.95726-2.6658 1.1593 1.7974 0.9077 1.5206 1.7402 2.7092 0.72257-0.31809 0.73379-0.40931 1.6578-0.5443-0.18814-3.249 0.32127-6.2648-1.5139-8.9767"/><path d="m23.635 5.7133c2.4568 4.7948 3.237 8.4686 2.2174 12.8 0 0 1.1442-0.79756 1.654-1.8877 0.16623 0.92728 0.15696 1.3517-0.15965 2.2506 2.9512-2.318 3.1843-5.3445 2.6632-6.4871 1.2241 1.2563 1.9504 0.91069 3.428 0.84197-2.3178-1.031-2.9242-2.2979-3.3077-3.6084-1.0371-3.0283-3.9533-5.998-5.635-6.1887"/><path d="m11.532 6.9921c-1.6281 1.9102-2.0943 7.2326-1.6964 10.242-0.70198-1.1487-1.4683-1.5865-1.6267-2.9378-0.031894 1.9247-0.05651 3.2751 0.69959 4.6468-3.2184-1.7206-6.0725-4.1684-3.9317-7.8926-1.0547 0.49838-2.2742 1.0935-4.0198-1.4219 1.6715 0.2374 3.2883 0.50602 5.1275-2.0404 1.0111-1.6573 2.1184-3.6484 3.8582-3.7927"/></g><g><g fill="#ff96a0"><path d="m15.631 19.601a2.12 1.1126 0 0 1-0.36673 1.4845 2.12 1.1126 0 0 1-2.8506-0.05068 2.12 1.1126 0 0 1-0.17446-1.4941" filter="url(#f)" opacity=".25"/><path transform="rotate(-4.7054)" d="m23.076 21.167a2.12 1.1126 0 0 1 0.06284 1.4903 2.12 1.1126 0 0 1-2.8181 0.18559 2.12 1.1126 0 0 1-0.64068-1.4522" filter="url(#e)" opacity=".25" style="mix-blend-mode:normal"/><path d="m19.558 21.816c-0.06508 1.4972-2.5026 1.1669-2.4452-0.06379 0.02233-0.7041 2.4639-0.78994 2.4452 0.06379z" style="paint-order:normal"/></g><path d="m19.558 21.816c-0.06508 1.4972-2.5026 1.1669-2.4452-0.06379 0.02233-0.7041 2.4639-0.78994 2.4452 0.06379z" fill="none" stroke="#232533" stroke-linecap="round" stroke-linejoin="round" stroke-width=".26458" style="paint-order:normal"/><path d="m19.312 21.372c0.31808 0.2941 0.33245 0.54742 0.086 0.99743-0.23725-0.51096-0.6693-1.0204-1.3665-1.1277 0.48224-0.11465 1.0486 2.07e-4 1.2805 0.13027z" fill="#232533" opacity=".5"/></g><g><ellipse transform="matrix(.91563 -.40202 .31641 .94862 0 0)" cx="12.474" cy="25.12" rx=".11588" ry=".17324" fill="#232533" filter="url(#d)" opacity=".25" style="mix-blend-mode:normal"/></g><g stroke-linecap="round" stroke-linejoin="round"><path d="m20.385 18.305c1.9516-1.4635 4.2042-1.0281 4.8042 0.5092-1.23-1.0221-3.5517-1.1523-4.8042-0.5092z" fill="#232533" stroke="#232533" stroke-width=".39688"/><path d="m16.399 18.2c-2.1333-0.76341-3.6318-0.71346-5.0016 0.3528 0.78233-1.7661 3.435-1.8033 5.0016-0.3528z" fill="#232533" stroke="#232533" stroke-width=".39688"/><g fill="none" stroke-width=".26458px"><path d="m14.856 16.306c0.73476-0.02281 1.1991 0.33712 1.6178 0.99642" filter="url(#b)" opacity=".25" stroke="#ff96a0" style="mix-blend-mode:normal"/><path d="m14.856 16.306c0.72371-0.02834 1.2892 0.48885 1.6178 0.99642" stroke="#232533"/><path d="m20.355 17.333c0.68118-0.6237 0.95278-0.92 1.8757-0.76346" filter="url(#c)" opacity=".25" stroke="#ff96a0" style="mix-blend-mode:normal"/><path d="m20.355 17.333c0.45043-0.4847 0.95278-0.92 1.8757-0.76346" stroke="#232533"/></g><path d="m21.125 14.611c0.68039-1.0109 2.6489-0.88979 3.7703 0.20711-1.823-1.0661-2.9713-0.46535-3.7703-0.20711z" fill="#232533" stroke="#232533" stroke-width=".37042"/><path d="m11.442 14.382c1.6894-1.1172 3.7507-1.1705 5.095 0.17386-2.1774-0.8278-3.6203-0.70483-5.095-0.17386z" fill="#232533" stroke="#232533" stroke-width=".37042"/></g><g fill="#8c8bac" stroke-width="0"><path d="m17.962 7.0611c0.39536 0.022667 0.81353 0.5036 0.80585 0.87049-5e-3 0.23746-0.3616 0.71461-0.82443 0.70039-0.51202-0.061928-0.82432-0.4842-0.80777-0.74645 0.03014-0.51682 0.24156-0.76089 0.82634-0.82443z"/><path d="m19.382 7.5c0.17154-1.71e-4 0.31566 0.13363 0.32169 0.32694 0.0074 0.14605-0.02359 0.42229-0.21694 0.42633-0.33014-0.025847-0.2864-0.20032-0.27793-0.42215 0.0027-0.17425 0.04059-0.3224 0.17318-0.33113z"/><path d="m26.098 6.1673c0.37252-0.00474 0.59428 0.078814 0.80128 0.74716 0.1901 0.548 0.2459 0.75115-0.27632 0.73693-0.52198-0.021279-0.56045-0.30994-0.77123-0.75102-0.31703-0.63101-0.28828-0.74262 0.24626-0.73307z"/><path d="m26.978 5.5236c0.37252-0.00474 0.65888 0.41471 0.80128 0.74716 0.1901 0.548 0.05211 0.75115-0.27632 0.73693-0.30235-0.0083603-0.59921-0.38745-0.77123-0.75102-0.11032-0.37262-0.28828-0.74262 0.24626-0.73307z"/><path d="m24.974 6.1535c0.44016 0.051544 1.3432 1.7663 1.0731 2.0139-0.38495 0.1934-1.3095-0.58399-1.4472-0.97026-0.12519-0.41176-0.06903-0.9984 0.37415-1.0437z"/><path d="m23.125 6.9649c0.21722-0.086955 0.56688 0.11992 0.67339 0.40003 0.06678 0.21 0.17282 0.3492 0.09823 0.60447-0.08133 0.20823-0.90316 0.28412-1.0783 0.21341-0.20674-0.11018-0.43776-0.29359-0.4329-0.5305 0.0027-0.24276 0.42427-0.55078 0.73956-0.6874z"/></g></svg>
