<?xml version="1.0" encoding="UTF-8"?>
<svg width="128" height="128" version="1.1" viewBox="0 0 33.867 33.867" xmlns="http://www.w3.org/2000/svg" xmlns:xlink="http://www.w3.org/1999/xlink"><title>若木 みどり（笑顔）</title><defs><linearGradient id="a" x1="17.477" x2="17.559" y1="25.473" y2="28.79" gradientUnits="userSpaceOnUse"><stop stop-color="#d8a398" offset="0"/><stop stop-color="#f4d2c6" offset="1"/></linearGradient><filter id="f" x="-.21401" y="-.50151" width="1.428" height="2.003" color-interpolation-filters="sRGB"><feGaussianBlur stdDeviation="0.37807552"/></filter><filter id="e" x="-.22073" y="-.49888" width="1.4415" height="1.9978" color-interpolation-filters="sRGB"><feGaussianBlur stdDeviation="0.38995629"/></filter><filter id="d" x="-.094124" y="-.062959" width="1.1882" height="1.1259" color-interpolation-filters="sRGB"><feGaussianBlur stdDeviation="0.0090890409"/></filter><filter id="b" x="-.26417" y="-.67818" width="1.5283" height="2.3564" color-interpolation-filters="sRGB"><feGaussianBlur stdDeviation="0.17424355"/></filter><filter id="c" x="-.23518" y="-.85942" width="1.4704" height="2.7199" color-interpolation-filters="sRGB"><feGaussianBlur stdDeviation="0.18657505"/></filter></defs><g><g><path d="m27.089 18.881c1.5443 4.6903 1.3396 11.312-0.68041 12.588-6.3854 2.1245-12.459 1.4319-16.982 6e-3 -2.7002-0.72351-3.6257-9.5078-2.3243-13.253" fill="#433030" stroke="#321e1e" stroke-linecap="round" stroke-linejoin="round" stroke-width=".39688"/><path d="m26.317 21.518c2.3859 5.2655 1.6195 8.8225 1.3396 11.631 2.718-0.48698 4.6383-6.6279-0.14884-15.883" fill="#4c3633"/><path d="m27.748 24.133c1.05 2.2558 1.1743 4.2659 0.68042 6.0599 0.01175-2.0981 0.10865-3.473-0.68042-6.0599z" fill="#69524d"/><path d="m28.936 21.04c0.89054 1.1076 1.7287 4.8819 1.3143 7.4034-0.08393-2.2789-0.50401-4.0617-1.3143-7.4034z" fill="#69524d"/></g><path d="m26.317 21.518c2.3859 5.2655 1.6195 8.8225 1.3396 11.631 2.718-0.48698 4.6383-6.6279-0.14884-15.883" fill="none" stroke="#321e1e" stroke-linecap="round" stroke-linejoin="round" stroke-width=".39688"/><path d="m7.8225 19.626c-0.86274 6.4943-1.9957 10.635 1.9137 13.566-5.335-0.75566-5.2233-6.9766-4.6778-11.439" fill="#4c3633"/><path d="m8.4543 19.639c1.4466 0.29537-1.4363 7.2001-0.82324 11.185-1.7426-4.0997-1.1699-12.061 0.82324-11.185z" fill="#69524d"/><path d="m9.0448 19.571c-0.86274 6.4943-3.218 10.69 0.69137 13.62-5.335-0.75566-5.2233-6.9766-4.6778-11.439" fill="none" stroke="#321e1e" stroke-linecap="round" stroke-linejoin="round" stroke-width=".39688"/><g><a transform="translate(-.29768 -.63789)" fill="#67504b"><path d="m7.5176 10.298c-1.7837 10.888-8.8584 22.14-0.93129 23.032-2.6385-3.1817-0.69928-11.845 2.9387-17.872" fill="#67504b"/></a><path d="m27.853 18.91c3.0249 4.5227 4.1302 5.8237 3.24 12.881 0.27447-5.365-1.9041-8.0651-3.5165-11.691" fill="#4c3633"/><path d="m29.156 13.573c0.43195 6.5427 7.1167 13.943 1.9377 18.218 0.31402-6.606-0.10927-7.4764-3.24-12.881" fill="#67504b"/><path d="m7.2039 19.517c-1.4096 4.285-3.4659 9.8958-1.1704 13.154-3.7261-2.9679-0.53372-10.212 0.76342-13.75z" fill="#4c3633"/><a transform="translate(-.29768 -.63789)" fill="#4c3633"><path d="m7.5176 10.298c-2.2907 8.3364-9.0285 21.842-0.93129 23.032-6.4083-2.33-0.23627-15.074 1.9798-20.521" fill="#4c3633"/></a></g><a transform="translate(8.6753 4.5077)"><path d="m-1.4553 5.1524c-1.7837 10.888-8.8584 22.14-0.93129 23.032-3.3465-3.4782 0.35909-10.439 1.0443-14.865" fill="none" stroke="#321e1e" stroke-linecap="round" stroke-linejoin="round" stroke-width=".39688"/></a><path d="m29.156 13.573c1.0458 9.83 7.1639 13.283 1.9377 18.218 0.10437-4.8334-1.5161-7.7249-3.3836-11.584" fill="none" stroke="#321e1e" stroke-linecap="round" stroke-linejoin="round" stroke-width=".39688"/></g><g><path transform="scale(.26458)" d="m85.1 98.285c-16.405 4.2584-1.6555 9.3774 1.4648 29.742h14.658c-2.5224-8.6285-9.6118-30.692-16.123-29.742z" fill="#a5a178"/><path d="m26.031 31.467c-3.4e-5 1.0931-0.532 1.8026-0.80943 2.4334l1.5607-0.02619z" fill="#7c795b"/><path d="m26.782 33.874c-1.2047-3.9667-1.4528-4.7305-3.5628-7.6355-0.80273-0.7714-3.1583 0.50226-2.6153 1.7861 1.1361 1.7701 1.7986 3.0635 2.3303 5.8494" fill="none" stroke="#321e1e" stroke-linecap="round" stroke-linejoin="round" stroke-width=".39688"/><path d="m23.198 27.195c0.29246 2.0907-0.2231 2.8181-0.78673 3.3117 0.342-0.73772 0.72729-2.1083 0.78673-3.3117z" fill="#7d7a5c"/><path d="m24.261 29.726c0.10268 1.7095-0.44307 2.6784-1.3738 4.0295" fill="none" stroke="#321e1e" stroke-linecap="round" stroke-linejoin="round" stroke-width=".26458"/><path d="m23.322 27.23c0.16646 1.348 0.18783 2.6862-1.1256 3.527" fill="none" stroke="#321e1e" stroke-linecap="round" stroke-linejoin="round" stroke-width=".26458"/><g><path d="m11.773 25.748c-1.3251 0.05603-2.7353 6.291-3.5336 8.1127l4.5612 0.03394c-0.20567-1.8111 1.8283-8.0607-1.0275-8.1466z" fill="#a5a179"/><path d="m10.66 30.964c-0.0038 0.61459 0.32905 2.1101 0.85868 2.9343l1.2818-0.0034 0.15282-3.1437c-0.71157 1.9532-2.1036 0.65728-2.2933 0.21288z" fill="#7c795b"/><path d="m10.315 27.931-1.5916 5.2989c0.64855-0.63516 1.55-2.3867 1.5916-5.2989z" fill="#7c795b"/></g><g fill="none" stroke="#321e1e" stroke-linecap="round" stroke-linejoin="round"><path d="m10.66 30.964c-4e-3 1.4783 0.10471 1.7368 0.85868 2.9343" stroke-width=".26458"/><path d="m11.645 27.164c0.80792 1.2377 0.55437 2.3893 1.3083 3.5868" stroke-width=".26458"/><path d="m12.8 33.895c0.15282-3.1437 1.6225-8.3159-1.0275-8.1466-1.6625 0.04382-2.3865 5.8379-3.5012 8.175" stroke-width=".39688"/></g><rect x="27.244" y="33.837" width=".022553" height=".045105" fill="#69524d" opacity=".25" stroke-width="0"/></g><g stroke="#321e1e" stroke-linecap="round" stroke-linejoin="round"><path transform="scale(.26458)" d="m51.314 100.41c-9.3322 9.3992-8.804 19.636-3.9961 29.266h38.977c4.2026-9.3246 3.7659-22.467-5.668-29.143z" fill="#a5a179" stroke-width="1.5"/><ellipse cx="17.578" cy="24.672" rx="5.1592" ry="1.6867" fill="#7c795b" stroke-dashoffset="4" stroke-width=".39688"/><g fill="#fff" stroke-width=".26458"><path d="m16.47 26.915c-0.17519 1.9801-1.1761 2.0626-0.98351 5.2905 0.02723 0.14976-0.41476 0.34246-0.46609-0.06014-0.13174-3.8728 0.87965-3.6129 1.0022-5.424 0.02594-0.29819 0.52759-0.284 0.44741 0.19363z"/><path d="m19.559 27.007c0.41396 2.2911 1.0013 2.3282 0.79064 5.2003 0.02208 0.359-0.36212 0.16216-0.35933-0.16623-0.13797-2.7295-0.32618-2.4136-0.95388-5.0774-0.01473-0.34198 0.48543-0.49829 0.52258 0.04329z"/><path d="m14.876 31.801c0.11689-0.20438 0.65042-0.24723 0.76911 0.0011 0.07964 0.13951 0.07882 0.63633-0.08505 0.88917-0.22921 0.24727-0.39916 0.23443-0.59536-0.01739-0.16959-0.24228-0.16795-0.69525-0.0887-0.87288z"/><path d="m19.824 31.87c0.0793-0.18934 0.62035-0.22468 0.76911 0.0011 0.10796 0.15805 0.07031 0.71348-0.08505 0.88917-0.16984 0.15706-0.4455 0.23443-0.59536-0.01739-0.16959-0.35504-0.19051-0.6727-0.0887-0.87288z"/></g></g><g><path d="m14.693 24.665c-0.83925 0.66965 1.2122 2.7248 3.1894 2.913 1.2899-0.0041 2.786-2.0538 2.6088-2.6854-2.0599-1.7493-4.7294-0.7208-5.7982-0.22766z" fill="url(#a)"/><path d="m19.038 24.197c0.4607 0.05011 1.0511 0.45611 1.3375 0.7123" fill="none" stroke="#321e1e" stroke-linecap="round" stroke-linejoin="round" stroke-width=".39688"/><path d="m14.693 24.665c0.18998-0.18943 0.95001-0.54456 1.3334-0.55928" fill="none" stroke="#321e1e" stroke-linecap="round" stroke-linejoin="round" stroke-width=".39688"/><g><path d="m19.671 24.985c-0.3474-0.48388-0.33146-1.4603-0.39883-2.0895l-3.2532-0.25515c-0.03149 0.6541 0.15485 1.5249-0.1701 1.9987" fill="#d8a398" stroke="#321e1e" stroke-linecap="round" stroke-linejoin="round" stroke-width=".39688"/><path d="m18.053 27.641c-2.1542-0.14905-4.0042-0.39033-6.4009-0.8183-0.32365 0.06548-0.46027 0.27124-0.63148 0.45106-0.11278-1.9005 0.44991-2.8691 2.2553-2.2252-0.56614-0.57195 0.30502-1.0859 0.61644-1.1878 1.1531 0.60105 4.6166 2.7455 4.1606 3.7802z" fill="#7c795b"/><path d="m20.884 23.575c0.86595 0.12163 2.069 0.36906 1.7591 0.97728 1.188 0.80421 1.4368 1.3811 1.0525 2.3455l-0.37588-0.54126c-0.32208 0.82035-2.4389 0.43742-5.2664 1.2844-0.07224-1.4264 2.084-2.6003 2.8307-4.0659z" fill="#7c795b"/><path d="m18.053 27.641c-0.23346-0.91766-2.2361-2.4722-2.2361-2.4722-1.6434-1.6252-3.4364 0.44764-0.84197 1.0224-1.8691-0.33614-1.2388 0.24014-1.3983 0.37587-0.2103 0.12875-0.86928-0.15936-0.95699 0.31421 1.8891 0.28432 5.4333 0.75968 5.4333 0.75968z" fill="#a5a179"/><path d="m18.053 27.641c0.34114-2.0906 4.0775-2.6114 3.0111-1.7805 0.85405-0.31087 1.6934 0.0166 2.2553 0.49616z" fill="#a6a279"/></g><g fill="none" stroke="#321e1e" stroke-linecap="round" stroke-linejoin="round" stroke-width=".39688"><path d="m20.613 24.086c-0.59216 1.25-1.9086 1.9552-2.557 3.0866-0.9938-1.3338-2.4185-2.1998-3.7834-2.9678"/><path d="m21.154 23.966c2.7146 1.2084-1.7726 2.82-2.8362 3.5373 2.1155-0.27787 3.7441-0.53002 5.0012-1.1468 0.18772 0.14446 0.33035 0.3371 0.37587 0.54126 4.44e-4 0.0026 0.0024 0.0031 0.0056 0.0016 0.81364-1.0663-0.19531-1.9312-1.058-2.3471-0.16314-0.91881-0.98145-0.99142-1.7591-0.97728"/><path d="m13.892 23.861c-0.7265 0.31197-0.94869 0.47898-0.61644 1.1878-2.0352-1.22-2.2436 1.1412-2.2553 2.2252 0.11742-0.29581 0.49326-0.46169 0.49326-0.46169 0.90894 0.08436 3.3289 0.41632 6.2406 0.64953-1.0118-0.80224-2.3505-1.1403-3.6869-1.4468"/></g></g><g><path d="m6.2069 16.211c-0.75501 0.75512-0.72678 2.4015-0.23835 3.3648 0.62317 1.1097 3.2403 2.1517 3.0886 0.28436-0.027427-1.1853-1.3923-4.8804-2.8502-3.6492z" fill="#f4d2c6" stroke="#321e1e" stroke-linecap="round" stroke-linejoin="round" stroke-width=".39688"/><path d="m7.0949 17.062c-1.8296 0.67676 0.20635 3.2354 0.90862 2.6971 0.5213-0.40288-0.39625-2.9586-0.90862-2.6971z" fill="#d8a398"/><path d="m7.2613 18.169c0.49097-0.68715-0.40411-1.5167-0.7266-0.76307" fill="none" stroke="#321e1e" stroke-linecap="round" stroke-linejoin="round" stroke-width=".26458"/><g><path d="m27.412 13.14c0.95257 5.4837 1.6817 10.696-0.21263 13.566 0.25567-1.0857 0.35829-2.1283 0.55283-3.1894-0.49133 1.6156-0.87484 3.4874-2.3814 3.8273 0.36672-0.84339 0.75201-1.4449 1.0206-3.4021-0.59267 1.2707-1.1422 1.7046-1.616 1.9987 0.43539-2.1028 0.88992-4.0564 0.89305-6.0387" fill="#4c3633"/><path d="m10.179 16.674c0.07257 3.2177 0.35658 5.9049 2.0748 8.3595-1.134-0.56173-1.6397-1.0184-2.1651-2.4056 0.34832 1.6529 1.2498 3.1178 2.0748 4.1798-1.0878-0.2487-1.8158-1.2703-2.9168-2.7965 0.43758 0.94025 0.72071 1.769 1.293 2.5259-2.4114-1.1889-2.9691-7.6683-3.3679-11.306" fill="#4c3633"/><path d="m9.0448 19.571c0.27622 2.1876 4.1594 9.7201 0.20185 4.4397 0.43758 0.94025 0.72071 1.769 1.293 2.5259-2.4114-1.1889-2.3906-5.1444-2.7893-8.7825" fill="#67504b"/></g><path d="m10.179 16.674c0.07257 3.2177 0.35658 5.9049 2.0748 8.3595-1.134-0.56173-1.6397-1.0184-2.1651-2.4056 0.34832 1.6529 1.2498 3.1178 2.0748 4.1798-1.0878-0.2487-1.8158-1.2703-2.9168-2.7965 0.43758 0.94025 0.72071 1.769 1.293 2.5259-2.4114-1.1889-2.9691-7.6683-3.3679-11.306" fill="none" stroke="#321e1e" stroke-linecap="round" stroke-linejoin="round" stroke-width=".39688"/><path d="m26.785 20.838c0.46649-0.05267 1.1656-0.49668 1.4692-1.1173 0.18739 1.3756 0.0024 5.0651-1.0546 6.9858l0.55283-3.1894c-0.54336 2.4934-1.3953 3.5441-2.3814 3.8273 0.63093-2.1023 1.5556-4.509 1.414-6.5064z" fill="#67504b"/><path d="m27.412 13.14c0.95257 5.4837 1.6817 10.696-0.21263 13.566 0.25567-1.0857 0.35829-2.1283 0.55283-3.1894-0.49133 1.6156-0.87484 3.4874-2.3814 3.8273 0.36672-0.84339 0.75201-1.4449 1.0206-3.4021-0.59267 1.2707-1.1422 1.7046-1.616 1.9987 0.43539-2.1028 0.88992-4.0564 0.89305-6.0387" fill="none" stroke="#321e1e" stroke-linecap="round" stroke-linejoin="round" stroke-width=".39688"/><path d="m27.836 10.431c0.29916 6.0763-1.4644 3.6837-1.8584 10.545-0.23569 2.6407-17.194 6.5609-19.09-7.0133-0.83172-8.3107 4.0049-12.215 10.84-12.165 5.5972 0.10806 9.8184 1.4696 10.109 8.6328z" fill="#f4d2c6" stroke="#331f1f" stroke-linecap="round" stroke-linejoin="round" stroke-width=".39688"/><g fill="#ff96a0"><path d="m15.631 19.601a2.12 1.1126 0 0 1-0.36673 1.4845 2.12 1.1126 0 0 1-2.8506-0.05068 2.12 1.1126 0 0 1-0.17446-1.4941" filter="url(#f)" opacity=".6"/><path transform="rotate(-4.7054)" d="m23.076 21.167a2.12 1.1126 0 0 1 0.06284 1.4903 2.12 1.1126 0 0 1-2.8181 0.18559 2.12 1.1126 0 0 1-0.64068-1.4522" filter="url(#e)" opacity=".6" style="mix-blend-mode:normal"/><path d="m19.63 21.687c-0.06508 1.4972-2.5026 1.1669-2.4452-0.06379 0.02233-0.7041 2.4639-0.78994 2.4452 0.06379z" style="paint-order:normal"/></g><path d="m19.63 21.687c-0.06508 1.4972-2.5026 1.1669-2.4452-0.06379 0.02233-0.7041 2.4639-0.78994 2.4452 0.06379z" fill="none" stroke="#331f1f" stroke-linecap="round" stroke-linejoin="round" stroke-width=".26458" style="paint-order:normal"/><path d="m19.385 21.242c0.31808 0.2941 0.33245 0.54742 0.086 0.99743-0.23725-0.51096-0.6693-1.0204-1.3665-1.1277 0.48224-0.11465 1.0486 2.07e-4 1.2805 0.13027z" fill="#331f1f" opacity=".5"/></g><g><ellipse transform="matrix(.91563 -.40202 .31641 .94862 0 0)" cx="12.474" cy="25.12" rx=".11588" ry=".17324" fill="#321e1e" filter="url(#d)" opacity=".25" style="mix-blend-mode:normal"/></g><g><g><g stroke="#321e1e" stroke-linecap="round" stroke-linejoin="round"><path d="m21.444 12.229c1.3336-0.48689 1.9484-0.63124 3.6403 0.82842-1.8132-0.80588-2.5215-0.91603-3.6403-0.82842z" fill="#321e1e" stroke-width=".37042"/><path d="m12.186 12.674c1.7152-1.1172 1.9841-1.3328 3.7363-0.6801-1.0639 0.0096-2.5388 0.15376-3.7363 0.6801z" fill="#321e1e" stroke-width=".37042"/><path d="m18.116 0.21532c-5.3758-0.16089-9.8034 1.4873-12.272 6.1267-2.7947 7.4373-2.0378 10.117-5.546 21.64-0.15817 1.0718 0.23201 3.6592 2.424 4.5077 0.34728-9.1002 2.656-15.206 6.8041-22.836 4.3571-4.9821 15.047-2.223 16.755 5.4433 0.51031-1.1765 0.1701-1.7577 0.38273-3.5722 0.53806 2.942 0.99263 4.0126-1.4291 8.8763 1.6529-0.54897 3.2166-1.1663 4.491-4.0283-0.09705 2.1178-0.06394 3.0034-0.78929 4.6672 3.5236-1.5751 2.7466-10.645-1.5496-15.894 2.4482 2.1626 5.0122 4.9854 6.0812 9.2706 0.91041-3.1395-2.6509-8.6288-5.8686-10.206 2.0566 0.63069 4.4347 0.5114 4.4652-3.0619-1.1035 1.6528-1.8634 2.1513-3.3942 2.3741-2.9072-0.071792-2.9826-3.1054-10.554-3.307z" fill="#69524d" stroke-width=".39688"/></g><path d="m20.115 9.1856c0.7251 0.42229 3.8723 1.9895 5.826 3.9124-0.5466-3.0258-5.6134-6.0387-5.6134-6.0387z" fill="#dba89d"/><path d="m16.33 7.1018s-3.1583 2.4753-3.8911 4.4652c1.2992-0.84203 2.7672-1.5299 4.0399-1.9349z" fill="#dba89d"/></g><g fill="#69524d" stroke="#321e1e" stroke-linecap="round" stroke-linejoin="round" stroke-width=".39688"><path d="m17.606 5.2641c-1.3863 4.5833-5.381 6.9545-9.3969 8.2221 0.45134-5.0803 2.6505-7.8578 4.9317-9.3612"/><path d="m19.415 6.7694c2.8815 1.9292 5.5802 3.8549 6.866 8.3272 0.92702-1.5948 1.2283-5.4285 0.44287-7.3411"/><path d="m20.583 4.2314c1.6078 1.8732 2.4974 4.4969-0.1083 9.8962 0.21483-1.0053 0.145-1.4013 0.02325-2.0715 0.06276 0.9103-0.39349 1.4434-0.67859 2.2987-1.1848 0.11174-1.7084 0.18636-2.4604-0.17299 0.11046-1.7509 0.03474-3.1023-0.09295-4.8473 0.1226 1.6116-0.57417 3.4234-0.55815 4.6938-0.81537-3.0031-1.1937-7.4277-0.63258-8.8613"/></g><path d="m19.36 2.0008c1.6967-0.4747 3.9448 0.33948 5.5794 2.2633" fill="none" stroke="#321e1e" stroke-linecap="round" stroke-linejoin="round" stroke-width=".39688"/><g fill="#321e1e" stroke="#321e1e" stroke-linecap="round" stroke-linejoin="round"><path d="m20.813 17.352c1.2561-1.1592 3.5899-1.2583 4.4865 0.98646-1.923-1.3364-2.7995-1.1939-4.4865-0.98646z" stroke-width=".39688"/><path d="m16.037 17.195c-1.9741-0.35613-3.2998-0.36544-4.498 1.0657 0.17413-2.0542 3.4063-2.4654 4.498-1.0657z" stroke-width=".39688"/><g stroke-width=".13229"><path d="m24.158 15.644c0.26186 0.64644 0.35357 1.2267-0.01504 1.1727-0.498-0.27796 0.14062-0.23929 0.01504-1.1727z"/><path d="m12.097 15.649c0.81848 0.80066 1.9449 0.39752 1.3057 0.74946-0.52807 0.36855-0.99068-0.1921-1.3057-0.74946z"/><path d="m11.194 16.742c0.50878 0.37412 1.3723-0.22804 0.91376 0.47474-0.43238 0.69813-0.67321-0.02368-0.91376-0.47474z"/><path d="m25.748 17.168c-0.81603 1.1352-0.88554 0.7972-0.9665 0.25119-0.32449-0.85172 0.22086 0.68653 0.9665-0.25119z"/></g></g><g fill="none" stroke-linecap="round" stroke-linejoin="round" stroke-width=".26458px"><path d="m14.166 15.54c0.72371-0.02834 1.5649 0.09862 2.0838 0.80799" filter="url(#b)" opacity=".25" stroke="#ff96a0" style="mix-blend-mode:normal"/><path d="m14.166 15.54c0.72371-0.02834 1.5649 0.09862 2.0838 0.80799" stroke="#321e1e"/><path d="m20.732 16.365c0.68118-0.6237 1.5436-0.77315 2.4665-0.61662" filter="url(#c)" opacity=".25" stroke="#ff96a0" style="mix-blend-mode:normal"/><path d="m20.732 16.365c0.68118-0.6237 1.5436-0.77315 2.4665-0.61662" stroke="#321e1e"/></g><path d="m14.629 4.4652c-2.97 5.3399-7.1555 11.324-3.4227 15.806-2.8457-1.8765-2.6356-2.6309-3.2964-3.9841-0.11128 0.94436 0.33504 1.7565 0.97809 2.828-4.0414-1.7344-3.2849-11.361 2.8772-15.894" fill="#69524d" stroke="#321e1e" stroke-linecap="round" stroke-linejoin="round" stroke-width=".39688"/></g><g fill="#937263" stroke-width="0"><path d="m18.302 7.8283c-0.019068 0.91141-1.687 0.82143-1.6322-0.046063 0.076354-1.3095 1.6504-0.82242 1.6322 0.046063z"/><path d="m18.787 7.1681c0.22239 0.73407 0.12194 1.599-0.22907 1.1085-0.38129-1.332 0.1371-1.3178 0.22907-1.1085z"/><path d="m19.577 7.217c0.27378 1.0038-0.36525 1.2735-0.48466 1.0108-0.086212-0.36942-0.10995-1.4891 0.48466-1.0108z"/><path d="m20.381 6.9426c0.79116 1.2577-0.21977 1.689-0.36438 1.4318-0.46518-1.0949 0.1658-1.8596 0.36438-1.4318z"/><path d="m23.343 6.251c1.4493 0.99187 0.26271 0.82087 0.18816 0.75898-0.68196-0.46558-0.6324-0.97441-0.18816-0.75898z"/><path d="m23.944 5.409c1.0328 0.50483 1.0415 2.4219 0.549 1.6009-0.5883-0.64586-1.4076-1.9286-0.549-1.6009z"/><path d="m24.561 5.2136c1.684 1.1625 1.0197 1.8205 0.74446 1.5408-0.13074-0.3021-1.5717-1.7119-0.74446-1.5408z"/><path d="m24.816 4.973c0.42229-0.38905 1.9888 1.1436 1.6616 1.4356-0.37027 0.21408-2.0397-1.0797-1.6616-1.4356z"/><path d="m25.463 3.9055c0.22961-0.36534 2.3218 1.7649 0.87978 1.5709-0.75687-0.34979-0.97963-1.3961-0.87978-1.5709z"/><path d="m25.613 4.6874c0.38138 0.19442 1.7906 1.1495 1.1203 1.4807-0.82323-0.41858-1.8059-1.6758-1.1203-1.4807z"/><path d="m14.225 7.209c-0.02088 0.66864-0.55375 0.8557-0.67689 0.71812-0.28055-0.38623 0.72245-1.4516 0.67689-0.71812z"/><path d="m11.964 6.7109c0.10344-0.1135 0.51558-0.2686 0.52018 0.00597 9e-3 0.52995-0.62872 1.4582-0.80135 0.80155-0.10157-0.51437 0.28116-0.76971 0.28116-0.80752z"/><path d="m11.319 6.5458c-0.13544 0.38529-0.49098 1.2813-0.8324 0.60618 0.18115-1.5025 0.96116-0.87415 0.8324-0.60618z"/><path d="m9.9954 6.0252c-0.22438 0.3009-0.56293 1.1926-0.69078 0.3455 0.31302-0.76921 0.91937-0.62502 0.69078-0.3455z"/></g></svg>
