<?xml version="1.0" encoding="UTF-8" standalone="no"?>
<!-- Created with Inkscape (http://www.inkscape.org/) -->

<svg
   width="128"
   height="128"
   viewBox="0 0 33.866666 33.866668"
   version="1.1"
   id="svg5"
   inkscape:version="1.1.2 (b8e25be833, 2022-02-05)"
   sodipodi:docname="shigeru-smile.svg"
   inkscape:export-filename="C:\Users\hironobu\OneDrive\デスクトップ\start-with-l\img\midori\shigeru.png"
   inkscape:export-xdpi="96"
   inkscape:export-ydpi="96"
   xmlns:inkscape="http://www.inkscape.org/namespaces/inkscape"
   xmlns:sodipodi="http://sodipodi.sourceforge.net/DTD/sodipodi-0.dtd"
   xmlns:xlink="http://www.w3.org/1999/xlink"
   xmlns="http://www.w3.org/2000/svg"
   xmlns:svg="http://www.w3.org/2000/svg"
   xmlns:rdf="http://www.w3.org/1999/02/22-rdf-syntax-ns#"
   xmlns:cc="http://creativecommons.org/ns#"
   xmlns:dc="http://purl.org/dc/elements/1.1/">
  <title
     id="title917">若木 しげる(笑顔)</title>
  <sodipodi:namedview
     id="namedview7"
     pagecolor="#ffffff"
     bordercolor="#999999"
     borderopacity="1"
     inkscape:pageshadow="0"
     inkscape:pageopacity="0"
     inkscape:pagecheckerboard="true"
     inkscape:document-units="px"
     showgrid="false"
     units="px"
     inkscape:zoom="1.4142136"
     inkscape:cx="-123.39013"
     inkscape:cy="-92.277431"
     inkscape:window-width="1278"
     inkscape:window-height="1360"
     inkscape:window-x="1273"
     inkscape:window-y="0"
     inkscape:window-maximized="0"
     inkscape:current-layer="layer13" />
  <defs
     id="defs2">
    <linearGradient
       inkscape:collect="always"
       id="linearGradient149847">
      <stop
         style="stop-color:#d8a398;stop-opacity:1;"
         offset="0"
         id="stop149843" />
      <stop
         style="stop-color:#f4d2c6;stop-opacity:1"
         offset="1"
         id="stop149845" />
    </linearGradient>
    <linearGradient
       inkscape:collect="always"
       xlink:href="#linearGradient149847"
       id="linearGradient149849"
       x1="17.477024"
       y1="25.472939"
       x2="17.558514"
       y2="28.789948"
       gradientUnits="userSpaceOnUse" />
    <filter
       inkscape:collect="always"
       style="color-interpolation-filters:sRGB"
       id="filter10714"
       x="-0.21400969"
       y="-0.50150925"
       width="1.4280194"
       height="2.0030185">
      <feGaussianBlur
         inkscape:collect="always"
         stdDeviation="0.37807552"
         id="feGaussianBlur10716" />
    </filter>
    <filter
       inkscape:collect="always"
       style="color-interpolation-filters:sRGB"
       id="filter11248"
       x="-0.22073481"
       y="-0.49887745"
       width="1.4414696"
       height="1.9977549">
      <feGaussianBlur
         inkscape:collect="always"
         stdDeviation="0.38995629"
         id="feGaussianBlur11250" />
    </filter>
    <filter
       inkscape:collect="always"
       style="color-interpolation-filters:sRGB"
       id="filter12931"
       x="-0.094124118"
       y="-0.062958637"
       width="1.1882482"
       height="1.1259173">
      <feGaussianBlur
         inkscape:collect="always"
         stdDeviation="0.0090890409"
         id="feGaussianBlur12933" />
    </filter>
    <filter
       inkscape:collect="always"
       style="color-interpolation-filters:sRGB"
       id="filter19670"
       x="-0.30926234"
       y="-0.71975295"
       width="1.6185247"
       height="2.4405904">
      <feGaussianBlur
         inkscape:collect="always"
         stdDeviation="0.18657505"
         id="feGaussianBlur19672" />
    </filter>
    <filter
       inkscape:collect="always"
       style="color-interpolation-filters:sRGB"
       id="filter20900"
       x="-0.34025306"
       y="-0.55183424"
       width="1.6805061"
       height="2.1037238">
      <feGaussianBlur
         inkscape:collect="always"
         stdDeviation="0.17424355"
         id="feGaussianBlur20902" />
    </filter>
  </defs>
  <g
     inkscape:groupmode="layer"
     id="layer8"
     inkscape:label="うしろがみ"
     style="display:inline;opacity:1"
     sodipodi:insensitive="true">
    <path
       style="fill:#444965;fill-opacity:1;stroke:#232533;stroke-width:0.396875;stroke-linecap:round;stroke-linejoin:round;stroke-miterlimit:4;stroke-dasharray:none;stroke-opacity:1"
       d="m 4.7677384,14.364279 c 0.011602,3.247617 2.5746537,4.667034 4.2101281,9.383656 0.081236,0.234281 1.0656015,-1.074956 1.0656015,-1.074956 l 0.877162,1.779269 1.107475,-1.298145 0.576013,1.581473 1.228203,-1.100349 1.14267,1.443373 1.323092,-1.864357 1.082529,2.28534 0.902108,-1.984637 1.323091,1.924497 0.841968,-1.623795 0.781827,1.144009 0.721686,-1.32443 0.902108,1.262951 1.14267,-1.804216 1.374768,1.280326 c 0.120376,-5.878519 1.741576,-2.968043 2.698305,-9.380139 C 28.437441,9.4960175 5.1122676,9.2854027 4.7677384,14.364279 Z"
       id="path1256"
       sodipodi:nodetypes="cscccccccccccccccccc" />
  </g>
  <g
     inkscape:groupmode="layer"
     id="layer15"
     inkscape:label="うで"
     style="display:inline;opacity:1"
     sodipodi:insensitive="true">
    <path
       id="path157718"
       style="opacity:1;fill:#444965;fill-opacity:1;stroke:none;stroke-width:0;stroke-linecap:round;stroke-linejoin:round;stroke-miterlimit:4;stroke-dasharray:none;stroke-opacity:1"
       d="m 85.121706,98.218865 c -3.747286,0.07659 -2.482003,2.670665 -0.878872,6.461485 1.839186,8.61456 1.970282,19.1022 3.613707,23.69267 l 11.620448,-0.36778 C 96.092698,116.26373 90.831108,104.15666 87.779909,99.101678 87.116235,98.463904 86.170947,98.197419 85.121706,98.218865 Z"
       transform="scale(0.26458334)"
       sodipodi:nodetypes="sccccs" />
    <path
       id="path178168-1"
       style="display:inline;fill:#444965;fill-opacity:1;stroke:none;stroke-width:0;stroke-linecap:round;stroke-linejoin:round;stroke-miterlimit:4;stroke-dasharray:none;stroke-opacity:1"
       d="m 11.713077,25.742099 c -0.314575,6.5e-5 -0.614382,0.141866 -0.807492,0.435152 -0.547827,0.838577 -2.0196767,4.968695 -2.8010453,7.694069 l 4.4737703,-0.0062 c 0.08799,-2.148722 0.261761,-4.39258 0.46283,-6.42328 0.0218,-1.105602 -0.683932,-1.699864 -1.328063,-1.699732 z"
       sodipodi:nodetypes="sccccss" />
    <rect
       style="opacity:0.25;fill:#69524d;stroke-width:0;stroke-linecap:round;stroke-linejoin:round;stroke-dashoffset:4"
       id="rect994"
       width="0.022552697"
       height="0.045105394"
       x="27.243656"
       y="33.836563" />
    <path
       style="fill:#2c2e40;fill-opacity:1;stroke:none;stroke-width:0;stroke-linecap:round;stroke-linejoin:round;stroke-miterlimit:4;stroke-dasharray:none;stroke-opacity:1"
       d="m 23.870172,32.878653 c -0.0085,0.5343 -0.255149,0.592133 -0.387573,0.878501 0.111965,-0.713569 0.223931,-1.303125 0.335896,-2.144572 0.279559,-3.702277 0.421437,-1.160494 0.05168,1.266071 z"
       id="path7523"
       sodipodi:nodetypes="ccccc" />
    <path
       style="display:inline;opacity:1;fill:#2c2e40;fill-opacity:1;stroke:none;stroke-width:0;stroke-linecap:round;stroke-linejoin:round;stroke-miterlimit:4;stroke-dasharray:none;stroke-opacity:1"
       d="m 23.340518,30.086158 c -0.27342,0.470354 -0.401312,0.729161 -0.533736,1.015529 0.111965,-0.713569 0.278742,-1.595451 0.390707,-2.436898 0.124261,-0.605448 0.220463,-0.71287 0.316601,-1.520162 0.02851,0.850125 0.01671,1.501962 -0.173572,2.941531 z"
       id="path7523-4"
       sodipodi:nodetypes="ccccc" />
    <path
       style="display:inline;fill:#2c2e40;fill-opacity:1;stroke:none;stroke-width:0;stroke-linecap:round;stroke-linejoin:round;stroke-miterlimit:4;stroke-dasharray:none;stroke-opacity:1"
       d="m 12.142929,33.679083 c -0.200339,-0.315273 -0.392336,-0.58089 -0.800875,-1.265941 -0.269339,-0.504981 -0.471801,-0.872361 -0.803518,-1.65013 0.279559,1.232822 0.385971,1.337215 0.65693,1.828242 0.374982,0.53236 0.598174,0.799011 0.947463,1.087829 z"
       id="path7523-2"
       sodipodi:nodetypes="ccccc" />
    <path
       style="display:inline;opacity:1;fill:#2c2e40;fill-opacity:1;stroke:none;stroke-width:0;stroke-linecap:round;stroke-linejoin:round;stroke-miterlimit:4;stroke-dasharray:none;stroke-opacity:1"
       d="m 12.423623,31.982479 c -0.200339,-0.315273 -0.616148,-1.41676 -1.02012,-2.270812 -0.34242,-0.779037 -0.380449,-2.023395 -0.712166,-2.801164 0.11807,1.25866 0.212402,1.734596 0.497064,2.805707 0.178576,0.436441 0.885933,1.977451 1.235222,2.266269 z"
       id="path7523-2-0"
       sodipodi:nodetypes="ccccc" />
    <path
       style="display:inline;fill:none;fill-opacity:1;stroke:#232533;stroke-width:0.396875;stroke-linecap:round;stroke-linejoin:round;stroke-miterlimit:4;stroke-dasharray:none;stroke-opacity:1"
       d="m 26.319954,33.868054 c -0.974483,-2.06607 -1.775524,-6.550662 -3.100881,-7.629651 -1.095056,-0.549234 -1.517353,0.153231 -1.219889,1.475813 0.50453,1.717125 0.47971,3.326035 1.246193,6.251146"
       id="path157718-9"
       sodipodi:nodetypes="cccc" />
    <path
       style="display:inline;opacity:1;fill:none;fill-opacity:1;stroke:#232533;stroke-width:0.396875;stroke-linecap:round;stroke-linejoin:round;stroke-miterlimit:4;stroke-dasharray:none;stroke-opacity:1"
       d="m 12.771424,33.861116 c 0.03421,-2.743493 -0.13887,-5.114963 0.534334,-6.415114 0.03747,-1.643455 0.202545,-3.460954 -2.465593,-1.263103 -1.0974525,1.02671 -2.0341074,6.038947 -2.7356253,7.688421"
       id="path178168"
       sodipodi:nodetypes="cccc" />
  </g>
  <g
     inkscape:groupmode="layer"
     id="layer16"
     inkscape:label="どう"
     style="display:inline;opacity:1"
     sodipodi:insensitive="true">
    <path
       id="path190295"
       style="fill:#444965;fill-opacity:1;stroke:#232533;stroke-width:1.5;stroke-linecap:round;stroke-linejoin:round;stroke-miterlimit:4;stroke-dasharray:none;stroke-opacity:1"
       d="m 40.970286,98.958487 c 0,0 3.689787,3.033133 5.183587,8.020453 0.853417,7.08826 -0.338624,12.51692 -1.358258,21.54227 l 43.060926,-0.14819 C 85.618568,110.45976 85.681679,103.1752 87.757124,99.168765 83.682827,96.428614 80.140061,94.253727 75.017419,93.550263 L 68.33599,99.826484 53.078315,93.428941 c -4.840791,0.501879 -8.532545,2.91882 -12.108029,5.529546 z"
       transform="scale(0.26458334)"
       sodipodi:nodetypes="ccccccccc" />
    <path
       style="fill:#444965;fill-opacity:1;stroke:#232533;stroke-width:0.264583px;stroke-linecap:butt;stroke-linejoin:miter;stroke-opacity:1"
       d="m 17.203333,26.288483 c 0.343184,0.152885 1.084428,0.232437 1.614948,-0.01844 0.09641,2.101973 -0.0502,4.566826 -0.05629,7.853922 -1.267168,0.06674 -1.297619,0.02031 -1.715137,-0.06744 0.28328,-1.856831 -0.0079,-4.895616 0.156479,-7.768042 z"
       id="path42174"
       sodipodi:nodetypes="ccccc" />
    <circle
       style="opacity:1;fill:#8c8bac;fill-opacity:1;stroke:#232533;stroke-width:0.264583;stroke-linecap:round;stroke-linejoin:round;stroke-miterlimit:4;stroke-dasharray:none;stroke-dashoffset:4;stroke-opacity:1"
       id="path56661"
       cx="18.014593"
       cy="28.684494"
       r="0.25578532" />
    <circle
       style="display:inline;fill:#8c8bac;fill-opacity:1;stroke:#232533;stroke-width:0.264583;stroke-linecap:round;stroke-linejoin:round;stroke-miterlimit:4;stroke-dasharray:none;stroke-dashoffset:4;stroke-opacity:1"
       id="path56661-8"
       cx="17.990181"
       cy="31.644295"
       r="0.25578532" />
  </g>
  <g
     inkscape:groupmode="layer"
     id="layer14"
     inkscape:label="くび"
     style="display:inline;opacity:1"
     sodipodi:insensitive="true">
    <path
       style="fill:url(#linearGradient149849);fill-opacity:1;stroke:none;stroke-width:0;stroke-linecap:round;stroke-linejoin:round;stroke-miterlimit:4;stroke-dasharray:none;stroke-opacity:1"
       d="m 15.90464,22.602449 c -0.0051,1.193218 -0.03141,2.073925 -1.211983,2.0625 -0.839248,0.669651 1.337618,1.486216 3.314827,1.67439 1.289949,-0.0041 2.660588,-0.815164 2.483398,-1.446726 0.06696,-0.5341 -1.392011,0.466577 -1.418071,-1.949958 z"
       id="path146099"
       sodipodi:nodetypes="cccccc" />
    <path
       style="display:inline;fill:none;fill-opacity:1;stroke:#232533;stroke-width:0.396875;stroke-linecap:round;stroke-linejoin:round;stroke-miterlimit:4;stroke-dasharray:none;stroke-opacity:1"
       d="m 19.556692,24.947152 c -0.347398,-0.483884 -0.331465,-1.460311 -0.39883,-2.089549 L 15.90464,22.602449 c -0.03149,0.654105 0.154851,1.524941 -0.170103,1.998711"
       id="path136556-6"
       sodipodi:nodetypes="cccc" />
    <path
       style="fill:none;stroke:#232533;stroke-width:0.396875;stroke-linecap:round;stroke-linejoin:round;stroke-miterlimit:4;stroke-dasharray:none;stroke-opacity:1"
       d="m 19.335259,24.3126 c 0.394559,-0.08218 0.885727,0.406498 1.155623,0.580013"
       id="path30065"
       sodipodi:nodetypes="cc" />
    <path
       style="display:inline;fill:none;stroke:#232533;stroke-width:0.396875;stroke-linecap:round;stroke-linejoin:round;stroke-miterlimit:4;stroke-dasharray:none;stroke-opacity:1"
       d="m 14.692657,24.664949 c 0.23496,-0.121959 0.728632,-0.413611 1.068838,-0.493137"
       id="path30065-2"
       sodipodi:nodetypes="cc" />
  </g>
  <g
     inkscape:groupmode="layer"
     id="layer4"
     inkscape:label="えり"
     style="display:inline;opacity:1"
     sodipodi:insensitive="true">
    <path
       style="fill:#444965;fill-opacity:1;stroke:#232533;stroke-width:0.396875;stroke-linecap:round;stroke-linejoin:round;stroke-miterlimit:4;stroke-dasharray:none;stroke-opacity:1"
       d="m 13.458986,25.036007 c 0.09458,1.436049 0.584541,2.185701 1.424979,3.074018 1.094607,-0.533441 2.804427,-1.913436 3.123519,-1.770686 -1.647911,-0.838531 -2.218014,-1.270275 -2.949419,-2.076338 -0.712256,0.214242 -0.999191,0.266165 -1.599079,0.773006 z"
       id="path45241"
       sodipodi:nodetypes="ccccc" />
    <path
       style="fill:#444965;fill-opacity:1;stroke:#232533;stroke-width:0.396875;stroke-linecap:round;stroke-linejoin:round;stroke-miterlimit:4;stroke-dasharray:none;stroke-opacity:1"
       d="m 18.007484,26.339339 c 0.802877,0.835596 1.703352,1.125919 2.719384,1.824091 0.355975,-0.724603 0.436786,-2.553512 0.476857,-3.225464 -0.657516,-0.224715 -0.934248,-0.107453 -1.941546,-0.661907 0.496358,1.163674 -0.494375,1.317682 -1.254695,2.06328 z"
       id="path48414"
       sodipodi:nodetypes="ccccc" />
  </g>
  <g
     inkscape:groupmode="layer"
     id="layer2"
     inkscape:label="みみ"
     style="display:inline"
     sodipodi:insensitive="true">
    <path
       style="fill:#f4d2c6;fill-opacity:1;stroke:#232533;stroke-width:0.396875;stroke-linecap:round;stroke-linejoin:round;stroke-miterlimit:4;stroke-dasharray:none;stroke-opacity:1"
       d="m 6.2068718,16.211277 c -0.3736806,0.457941 -0.4794606,1.062238 -0.5558195,1.631431 -0.050636,0.591463 0.040534,1.204113 0.3174679,1.733413 0.5548423,0.727327 1.3562851,1.343915 2.2944265,1.423599 0.5326796,-0.05759 1.1845741,-0.874807 1.2334034,-1.552646 0.1164425,-1.322853 -2.0625029,-4.271951 -3.2894783,-3.235797 z"
       id="path5548"
       sodipodi:nodetypes="cccccc" />
    <path
       style="fill:#d8a398;fill-opacity:1;stroke:none;stroke-width:0.105833;stroke-linecap:round;stroke-linejoin:round;stroke-miterlimit:4;stroke-dasharray:0, 1.16417;stroke-dashoffset:1.05833;stroke-opacity:1"
       d="M 7.7503223,17.754511 C 7.5950344,17.475453 7.4110067,17.176 7.0948814,17.06194 c -0.212275,-0.08066 -0.4958433,-0.0014 -0.5747001,0.228228 -0.1294246,0.311686 -0.043081,0.653798 -0.023271,0.977407 0.060276,0.505004 0.4254288,0.903801 0.7956382,1.221501 0.166462,0.155433 0.3596851,0.27618 0.5715785,0.359215 C 8.0991985,19.9589 8.3178941,19.647249 8.237364,19.431667 8.2063003,19.055423 8.2055982,18.665054 8.0411324,18.316253 7.9603299,18.121149 7.857919,17.935906 7.7503223,17.754511 Z"
       id="path32400"
       sodipodi:nodetypes="ccccccccccccsccc" />
    <path
       style="fill:none;stroke:#232533;stroke-width:0.264583;stroke-linecap:round;stroke-linejoin:round;stroke-miterlimit:4;stroke-dasharray:none;stroke-opacity:1"
       d="m 7.261276,18.169137 c 0.1473669,-0.08207 0.2953474,-0.223044 0.2897284,-0.404544 0.00223,-0.247208 -0.089994,-0.511422 -0.303312,-0.652852 -0.1802031,-0.123681 -0.4557183,-0.135965 -0.6146732,0.02963 -0.064946,0.07184 -0.092796,0.169779 -0.098348,0.264699"
       id="path32536"
       sodipodi:nodetypes="cccccccc" />
    <path
       style="fill:#d8a398;fill-opacity:1;stroke:#232533;stroke-width:0.396875;stroke-linecap:round;stroke-linejoin:round;stroke-miterlimit:4;stroke-dasharray:none;stroke-opacity:1"
       d="m 24.168026,16.972984 c 0.143141,-2.041778 3.799161,-1.417424 3.32343,0.991307 -0.847365,2.417056 -2.906377,3.7861 -3.166812,2.770005 -0.289895,-1.181776 -0.21946,-2.603769 -0.156618,-3.761312 z"
       id="path95132"
       sodipodi:nodetypes="cccc" />
  </g>
  <g
     inkscape:groupmode="layer"
     id="layer3"
     inkscape:label="かお"
     style="display:inline"
     sodipodi:insensitive="true">
    <path
       style="fill:#f4d2c6;fill-opacity:1;stroke:#232533;stroke-width:0.396875;stroke-linecap:round;stroke-linejoin:round;stroke-miterlimit:4;stroke-dasharray:none;stroke-opacity:1"
       d="m 27.835998,10.430841 c 0.299157,6.07627 -2.202648,7.424602 -1.858419,10.545198 C 25.741888,23.616719 10.786543,25.946902 8.9702968,19.553475 7.9098644,16.10274 6.5523792,14.998557 6.6411999,12.354422 6.9098567,6.8961399 10.004746,1.8706831 17.727036,1.798051 c 5.597216,0.1080615 9.818445,1.469634 10.108962,8.63279 z"
       id="path61693"
       sodipodi:nodetypes="cccccc" />
  </g>
  <g
     inkscape:groupmode="layer"
     id="layer24"
     inkscape:label="かみ(かげ)"
     style="display:inline"
     sodipodi:insensitive="true">
    <path
       style="fill:#dba89d;fill-opacity:1;stroke:none;stroke-width:0;stroke-linecap:round;stroke-linejoin:round;stroke-miterlimit:4;stroke-dasharray:none;stroke-opacity:1"
       d="m 19.307332,10.659798 c 0.725096,0.422289 3.54347,1.477979 5.497164,3.400801 -0.508105,-2.011487 -3.140013,-6.2323044 -5.54032,-7.1714235 z"
       id="path24113"
       sodipodi:nodetypes="cccc" />
    <path
       style="fill:#dba89d;fill-opacity:1;stroke:none;stroke-width:0;stroke-linecap:round;stroke-linejoin:round;stroke-miterlimit:4;stroke-dasharray:none;stroke-opacity:1"
       d="M 14.285119,6.7409608 C 12.69315,7.3294404 11.564671,10.058088 10.613256,11.644657 13.0818,9.9987324 13.909899,9.5807744 16.297538,10.623252 16.331878,9.7511573 15.108762,7.401507 14.285119,6.7409608 Z"
       id="path24113-6"
       sodipodi:nodetypes="cccc" />
  </g>
  <g
     inkscape:groupmode="layer"
     id="layer5"
     inkscape:label="まえがみ(うしろ)"
     style="display:inline"
     sodipodi:insensitive="true">
    <path
       style="fill:#444965;fill-opacity:1;stroke:#232533;stroke-width:0.396875;stroke-linecap:round;stroke-linejoin:round;stroke-miterlimit:4;stroke-dasharray:none;stroke-opacity:1"
       d="M 20.918883,0.6704952 C 26.691182,1.4195807 31.370638,8.3822497 27.336833,15.50293 24.804496,14.060599 23.445802,11.842628 21.962484,9.3534344 21.80526,9.9563263 21.726647,10.559218 21.445716,11.16211 19.99545,10.340747 16.967302,9.0826653 15.434815,9.7767679 14.06422,10.397545 13.826066,8.8043553 13.280844,8.0098472 10.572461,12.790058 9.6096882,14.102871 5.0642906,16.123047 2.5245732,7.4154161 10.344966,-0.33955786 13.050906,2.0258068 12.773324,1.0232586 13.567669,0.38860471 14.915083,0.23422146 14.210739,0.83727864 13.623705,1.4231281 13.623705,1.9731085 14.274341,0.38225573 18.484384,0.25081433 20.918883,0.6704952 Z"
       id="path21759"
       sodipodi:nodetypes="ccccscccccc" />
  </g>
  <g
     inkscape:groupmode="layer"
     id="layer7"
     inkscape:label="まえがみ(まえ)"
     style="display:inline;opacity:1"
     sodipodi:insensitive="true">
    <path
       style="fill:#444965;fill-opacity:1;stroke:#232533;stroke-width:0.396875;stroke-linecap:round;stroke-linejoin:round;stroke-miterlimit:4;stroke-dasharray:none;stroke-opacity:1"
       d="m 14.608806,5.3753289 c -0.845154,6.3625771 1.29795,7.7343111 3.834549,9.3606301 -0.611967,-0.751626 -0.767736,-1.622965 -0.957259,-2.665767 1.159294,1.797403 0.907705,1.520597 1.740214,2.709155 0.722566,-0.318087 0.73379,-0.409306 1.657756,-0.544303 -0.18814,-3.249008 0.321268,-6.264809 -1.513877,-8.9766823"
       id="path85394"
       sodipodi:nodetypes="cccccc" />
    <path
       style="fill:#444965;fill-opacity:1;stroke:#232533;stroke-width:0.396875;stroke-linecap:round;stroke-linejoin:round;stroke-miterlimit:4;stroke-dasharray:none;stroke-opacity:1"
       d="m 23.635227,5.7133499 c 2.456821,4.7948331 3.23704,8.4686281 2.217368,12.7998271 0,0 1.14424,-0.797564 1.653988,-1.887698 0.166232,0.927284 0.15696,1.351712 -0.159648,2.250559 2.951156,-2.317969 3.184304,-5.344538 2.663187,-6.48709 1.22411,1.256261 1.950436,0.910692 3.42801,0.841968 -2.3178,-1.030977 -2.924216,-2.297945 -3.307728,-3.6084319 -1.0371,-3.0283129 -3.953349,-5.9980058 -5.634952,-6.1886855"
       id="path88252"
       sodipodi:nodetypes="cccccccc" />
    <path
       style="fill:#444965;fill-opacity:1;stroke:#232533;stroke-width:0.396875;stroke-linecap:round;stroke-linejoin:round;stroke-miterlimit:4;stroke-dasharray:none;stroke-opacity:1"
       d="M 11.531871,6.9921454 C 9.9037288,8.9023242 9.4375834,14.224718 9.8354657,17.234427 9.1334902,16.085688 8.3671707,15.647964 8.2087802,14.296667 c -0.031894,1.924661 -0.05651,3.27514 0.6995909,4.646795 C 5.6899433,17.222901 2.8358265,14.775093 4.9766851,11.050879 3.9219859,11.549262 2.7024422,12.144387 0.95684003,9.6289357 2.6283848,9.8663357 4.245125,10.134954 6.084339,7.5885785 7.0954378,5.9313235 8.2026999,3.9402249 9.9425873,3.7958822"
       id="path90018"
       sodipodi:nodetypes="cccccccc" />
  </g>
  <g
     inkscape:groupmode="layer"
     id="layer21"
     inkscape:label="ほほ"
     style="display:inline"
     sodipodi:insensitive="true">
    <path
       style="opacity:0.25;fill:#ff96a0;fill-opacity:1;stroke:none;stroke-width:0.396875;stroke-linecap:round;stroke-linejoin:round;stroke-dashoffset:4;filter:url(#filter10714)"
       id="path962"
       sodipodi:type="arc"
       sodipodi:cx="13.892461"
       sodipodi:cy="20.237288"
       sodipodi:rx="2.1199536"
       sodipodi:ry="1.1125998"
       sodipodi:start="5.6742542"
       sodipodi:end="3.8182522"
       sodipodi:arc-type="arc"
       d="m 15.631374,19.60089 a 2.1199536,1.1125998 0 0 1 -0.366727,1.484487 2.1199536,1.1125998 0 0 1 -2.850588,-0.05068 2.1199536,1.1125998 0 0 1 -0.17446,-1.494109"
       sodipodi:open="true" />
    <path
       style="opacity:0.25;mix-blend-mode:normal;fill:#ff96a0;fill-opacity:1;stroke:none;stroke-width:0.396875;stroke-linecap:round;stroke-linejoin:round;stroke-dashoffset:4;filter:url(#filter11248)"
       id="path962-0"
       sodipodi:type="arc"
       sodipodi:cx="21.533646"
       sodipodi:cy="21.930418"
       sodipodi:rx="2.1199536"
       sodipodi:ry="1.1125998"
       sodipodi:start="5.5270121"
       sodipodi:end="3.648106"
       sodipodi:arc-type="arc"
       d="m 23.075842,21.167016 a 2.1199536,1.1125998 0 0 1 0.06284,1.490251 2.1199536,1.1125998 0 0 1 -2.818127,0.18559 2.1199536,1.1125998 0 0 1 -0.640684,-1.452196"
       sodipodi:open="true"
       transform="rotate(-4.7053542)" />
  </g>
  <g
     inkscape:groupmode="layer"
     id="layer23"
     inkscape:label="くち"
     style="display:inline"
     sodipodi:insensitive="true">
    <path
       style="display:inline;fill:#ff96a0;fill-opacity:1;stroke:none;stroke-width:0.264583;stroke-linecap:round;stroke-linejoin:round;stroke-miterlimit:4;stroke-dasharray:none;stroke-opacity:1;paint-order:normal"
       d="m 19.557737,21.816145 c -0.06508,1.497215 -2.502586,1.166878 -2.445232,-0.06379 0.02233,-0.7041 2.463895,-0.78994 2.445232,0.06379 z"
       id="path2267-2"
       sodipodi:nodetypes="ccc" />
    <path
       style="display:inline;fill:none;fill-opacity:1;stroke:#232533;stroke-width:0.264583;stroke-linecap:round;stroke-linejoin:round;stroke-miterlimit:4;stroke-dasharray:none;stroke-opacity:1;paint-order:normal"
       d="m 19.557737,21.816145 c -0.06508,1.497215 -2.502586,1.166878 -2.445232,-0.06379 0.02233,-0.7041 2.463895,-0.78994 2.445232,0.06379 z"
       id="path2267-2-1"
       sodipodi:nodetypes="ccc" />
    <path
       style="display:inline;opacity:0.5;fill:#232533;fill-opacity:1;stroke:none;stroke-width:0.264583px;stroke-linecap:round;stroke-linejoin:round;stroke-opacity:1"
       d="m 19.312266,21.371549 c 0.318084,0.294104 0.332451,0.547425 0.086,0.997426 -0.237247,-0.510955 -0.669298,-1.020436 -1.366547,-1.127693 0.482245,-0.114648 1.048611,2.07e-4 1.280547,0.130267 z"
       id="path4620"
       sodipodi:nodetypes="cccc" />
  </g>
  <g
     inkscape:groupmode="layer"
     id="layer22"
     inkscape:label="はな"
     style="display:inline;opacity:1"
     sodipodi:insensitive="true">
    <ellipse
       style="opacity:0.25;mix-blend-mode:normal;fill:#232533;fill-opacity:1;stroke:none;stroke-width:0;stroke-linecap:round;stroke-linejoin:round;stroke-miterlimit:4;stroke-dasharray:none;stroke-dashoffset:4;filter:url(#filter12931)"
       id="path11404"
       cx="12.473771"
       cy="25.120071"
       rx="0.1158773"
       ry="0.17323832"
       transform="matrix(0.91562912,-0.40202403,0.31641358,0.94862134,0,0)" />
  </g>
  <g
     inkscape:groupmode="layer"
     id="layer13"
     inkscape:label="まつげ"
     style="display:inline"
     sodipodi:insensitive="true">
    <path
       style="opacity:1;fill:#232533;fill-opacity:1;stroke:#232533;stroke-width:0.396875;stroke-linecap:round;stroke-linejoin:round;stroke-miterlimit:4;stroke-dasharray:none;stroke-opacity:1"
       d="m 20.384801,18.305073 c 1.951627,-1.463452 4.204174,-1.02807 4.804213,0.5092 -1.229963,-1.022141 -3.551683,-1.152265 -4.804213,-0.5092 z"
       id="path113770"
       sodipodi:nodetypes="ccc" />
    <path
       style="opacity:1;fill:#232533;fill-opacity:1;stroke:#232533;stroke-width:0.396875;stroke-linecap:round;stroke-linejoin:round;stroke-miterlimit:4;stroke-dasharray:none;stroke-opacity:1"
       d="m 16.39928,18.20039 c -2.133263,-0.763413 -3.631761,-0.713456 -5.001615,0.352803 0.782333,-1.766117 3.434967,-1.803307 5.001615,-0.352803 z"
       id="path113770-0"
       sodipodi:nodetypes="ccc" />
    <path
       style="display:inline;opacity:0.25;mix-blend-mode:normal;fill:none;stroke:#ff96a0;stroke-width:0.264583px;stroke-linecap:round;stroke-linejoin:round;stroke-opacity:1;filter:url(#filter20900)"
       d="m 14.856018,16.30555 c 0.734756,-0.02281 1.199078,0.337115 1.617843,0.996417"
       id="path13101-0"
       sodipodi:nodetypes="cc" />
    <path
       style="display:inline;fill:none;stroke:#232533;stroke-width:0.264583px;stroke-linecap:round;stroke-linejoin:round;stroke-opacity:1"
       d="m 14.856018,16.30555 c 0.723706,-0.02834 1.289153,0.488851 1.617843,0.996417"
       id="path13101-0-7"
       sodipodi:nodetypes="cc" />
    <path
       style="display:inline;opacity:0.25;mix-blend-mode:normal;fill:none;stroke:#ff96a0;stroke-width:0.264583px;stroke-linecap:round;stroke-linejoin:round;stroke-opacity:1;filter:url(#filter19670)"
       d="m 20.35521,17.333133 c 0.68118,-0.623696 0.952777,-0.919998 1.875662,-0.763465"
       id="path13101-2"
       sodipodi:nodetypes="cc" />
    <path
       style="display:inline;fill:none;stroke:#232533;stroke-width:0.264583px;stroke-linecap:round;stroke-linejoin:round;stroke-opacity:1"
       d="m 20.35521,17.333133 c 0.45043,-0.484696 0.952777,-0.919998 1.875662,-0.763465"
       id="path13101"
       sodipodi:nodetypes="cc" />
  </g>
  <g
     inkscape:groupmode="layer"
     id="layer10"
     inkscape:label="まゆげ"
     style="display:inline"
     sodipodi:insensitive="true">
    <path
       style="fill:#232533;fill-opacity:1;stroke:#232533;stroke-width:0.370417;stroke-linecap:round;stroke-linejoin:round;stroke-miterlimit:4;stroke-dasharray:none;stroke-opacity:1"
       d="m 21.125389,14.610843 c 0.680392,-1.010886 2.648928,-0.889787 3.770301,0.207109 -1.82295,-1.066121 -2.971321,-0.465354 -3.770301,-0.207109 z"
       id="path69362"
       sodipodi:nodetypes="ccc" />
    <path
       style="fill:#232533;fill-opacity:1;stroke:#232533;stroke-width:0.370417;stroke-linecap:round;stroke-linejoin:round;stroke-miterlimit:4;stroke-dasharray:none;stroke-opacity:1"
       d="m 11.442456,14.382375 c 1.689394,-1.117237 3.750682,-1.170462 5.095006,0.173862 -2.17741,-0.827795 -3.620295,-0.704832 -5.095006,-0.173862 z"
       id="path69362-9"
       sodipodi:nodetypes="ccc" />
  </g>
  <g
     inkscape:groupmode="layer"
     id="layer19"
     inkscape:label="かみ(はいらいと)"
     style="display:inline;opacity:1"
     sodipodi:insensitive="true">
    <path
       style="fill:#8c8bac;fill-opacity:1;stroke:#927162;stroke-width:0;stroke-linecap:round;stroke-linejoin:round;stroke-miterlimit:4;stroke-dasharray:none;stroke-opacity:1"
       d="m 17.961533,7.0611443 c 0.395355,0.022667 0.813527,0.5036004 0.805853,0.8704886 -0.005,0.2374636 -0.361596,0.7146113 -0.824427,0.7003855 -0.512021,-0.061928 -0.824322,-0.4842021 -0.807768,-0.7464487 0.03014,-0.5168161 0.241559,-0.7608896 0.826342,-0.8244254 z"
       id="path267945"
       sodipodi:nodetypes="ccccc" />
    <path
       style="display:inline;fill:#8c8bac;fill-opacity:1;stroke:#927162;stroke-width:0;stroke-linecap:round;stroke-linejoin:round;stroke-miterlimit:4;stroke-dasharray:none;stroke-opacity:1"
       d="m 19.381675,7.5000239 c 0.171543,-1.71e-4 0.315659,0.1336252 0.321688,0.3269448 0.0074,0.1460491 -0.02359,0.4222858 -0.216937,0.4263301 -0.330139,-0.025847 -0.286399,-0.200315 -0.277927,-0.4221497 0.0027,-0.1742466 0.04059,-0.3224006 0.173176,-0.3311252 z"
       id="path267945-0"
       sodipodi:nodetypes="ccccc" />
    <path
       style="display:inline;fill:#8c8bac;fill-opacity:1;stroke:#927162;stroke-width:0;stroke-linecap:round;stroke-linejoin:round;stroke-miterlimit:4;stroke-dasharray:none;stroke-opacity:1"
       d="m 26.097995,6.1672926 c 0.372517,-0.00474 0.594282,0.078814 0.801285,0.7471635 0.190104,0.5479975 0.245898,0.7511526 -0.276316,0.7369266 C 26.100987,7.6301033 26.06251,7.3414454 25.851737,6.9003662 25.534706,6.2693601 25.56346,6.1577469 26.097995,6.1672926 Z"
       id="path267945-0-0"
       sodipodi:nodetypes="ccccc" />
    <path
       style="display:inline;fill:#8c8bac;fill-opacity:1;stroke:#927162;stroke-width:0;stroke-linecap:round;stroke-linejoin:round;stroke-miterlimit:4;stroke-dasharray:none;stroke-opacity:1"
       d="m 26.977566,5.5236464 c 0.372517,-0.00474 0.658878,0.4147108 0.801285,0.7471635 0.190104,0.5479975 0.05211,0.7511526 -0.276316,0.7369266 C 27.200183,6.9993762 26.903324,6.6202846 26.731308,6.25672 26.620983,5.8840961 26.443031,5.5141007 26.977566,5.5236464 Z"
       id="path267945-0-0-3"
       sodipodi:nodetypes="ccccc" />
    <path
       style="display:inline;fill:#8c8bac;fill-opacity:1;stroke:#927162;stroke-width:0;stroke-linecap:round;stroke-linejoin:round;stroke-miterlimit:4;stroke-dasharray:none;stroke-opacity:1"
       d="m 24.97356,6.1534555 c 0.440161,0.051544 1.343156,1.7663175 1.073081,2.013931 C 25.661691,8.360784 24.7371,7.5833935 24.599409,7.1971254 24.474216,6.7853639 24.530379,6.1987208 24.97356,6.1534555 Z"
       id="path267945-0-7"
       sodipodi:nodetypes="cccc" />
    <path
       style="display:inline;fill:#8c8bac;fill-opacity:1;stroke:#927162;stroke-width:0;stroke-linecap:round;stroke-linejoin:round;stroke-miterlimit:4;stroke-dasharray:none;stroke-opacity:1"
       d="m 23.124893,6.96492 c 0.217219,-0.086955 0.566877,0.1199224 0.673393,0.4000263 0.06678,0.2099954 0.172816,0.3492043 0.09823,0.6044663 -0.08133,0.2082286 -0.903155,0.2841221 -1.078275,0.2134078 -0.206739,-0.1101826 -0.437764,-0.293591 -0.432903,-0.5305029 0.0027,-0.2427605 0.42427,-0.5507803 0.739555,-0.6873975 z"
       id="path267945-0-1"
       sodipodi:nodetypes="ccccccc" />
  </g>
  <metadata
     id="metadata915">
    <rdf:RDF>
      <cc:Work
         rdf:about="">
        <dc:title>若木 しげる(笑顔)</dc:title>
      </cc:Work>
    </rdf:RDF>
  </metadata>
</svg>
